<svg id="Layer_1" data-name="Layer 1" xmlns="http://www.w3.org/2000/svg" viewBox="0 0 612.55 691.12"><defs><style>.cls-1{fill:#626b61;}.cls-1,.cls-2,.cls-3{stroke:#fff;stroke-width:0.5px;}.cls-2{fill:#2eb418;}.cls-3{fill:#ccc;}</style></defs><g id="indiaHigh_1_1" data-name="indiaHigh (1) 1"><g id="Group"><g id="Group_1" data-name="Group 1"><path id="IN-AN" class="cls-1" d="M538.19,681.34l0,.47.76.3.11,2.46,1.26,1.83-.71,0,.66.92-.58.19-.43.94.1,1.87-.41.42-.66-.49-.5,1.3-.47-.22.23-1.08-.61-.31-.12-1.24L536,688l.07-.77L535,686.06l-.64.18-.12-2,.36-.27-.4-.27.64-1.35,1,.06.57-.57.88.27.09-.68Zm-2.83-4.26.9,1.76L534,681.29l-.57-1.38.24-1.3,1.7-.47Zm-7-12.2.62.37,0,1,.38-.12.73.79-.07,1.21-.82-.73-1.38.39-.29-.63.32-.48-.85.17.19-1.45Zm3.5-.07.75.77-.11,1.33-1.48-1.19.53-.84.39.6Zm.66-2,.29,1.84-.65-1.69Zm-1.09-2.23.39.71-.88,1,.94,1.26.05,1.09-.42-.26-.46.31-.16.77-.33-1,.43.08.12-.58.14.44.25-.66-.94.56.09-.83-.63-.64-.11-1.08Zm-6.1-.72.09.94-.41-.51Zm-2.28-1.9.36.2-.36,1.47,1.64,1.28-.11.46-1.59-.57-.76-1,.16-1.46Zm-1.73-2.46.29.71-.47-.2Zm12-2.11.55,2.21-.33,0-.08,1ZM516,639.23l.77,1,.63-.27-.61.35.11,1.13-.86.45-1.21-.15-.23-1.88,1,0,.15-.86ZM510.3,604.3l.3.69,0-.42.55.46,0,1.32.57.3L512,609l-1.18,1.39.61.71-1.18,1.42-1.64-.77-1,.34.73-1.75-.84-1.11-.09-2.42.45.45,1.25-2.14.89-.62.23.46Zm2.63-13,.93,1.56-.77.62.93.42-.06.36-1.86.52-.43-.44.12-.71.75-.11-.19-1.46Zm-.93-.67-.28.15.18-.91Zm-7.92-1.08,1.09.18,0,1.3-1.16-.14Zm6.72-.23.62.31-.82.73Zm10.07-5.1,1.08.17-.47.49-.71-.34Zm-1.07-4,.27-.22.56.53.94,2.46-.24.44-.89-1.44-.54,0-1-1,.82-1.15Zm.41-1.48.07,1.26-.64-.6,0-.73Zm.81-1.15.37,2.38-.81-.65v-.67l-1.08-.74.61-.13.42.57Zm.85-1.16.55,1.47-.42,1.25-.79-1.06Zm-7.7-.51.06,1.49,1-.15-.58,2,1.29.63-.46.56L515,580l-.06.53.67.36-1,.8.11,2.36.47-1.74.79-.08.09.74-.69,4.23-.26-.23,0,.48-.82-.36.14.79-.88.35.15.6.3-.32.14.38.74-.78-.18-.57.74.44-1,4-.27-.63-1.08-.31V590l-.62.2-.2-1.21.59.09.17-.44-.26-.31-.5.35-.42-1.77-.55.5-.32-3-.49.2-.2-.48,1-2.09.51,1.25.32-.2,0,.83.14-.28.27-4.93Zm.75.37h.37l-.12.72-.52-.09Zm3.46-.8.24.69-.45-.23-.1.45-.16-.61Zm3.68-.13.19.52.4-.49-.11,1.2-.78-.54Zm-2.85-.4L518.8,576l-.43-1.22.53.16.16-.64Zm-3.45-.63,1.28.37.6-.27.48.84-.64.43.45,1.08-.71,0,.09.85-.59-.17-.43.74.22.51-1,.92-.54-.66.65-3-.58-.18.17-.6.3.21.35-.46Zm22.25-.23.75.7.11,1.1-1.13-.18-.25-.86Zm-18.51-2-.48,1.17-.27-.11.23-1.07Zm-5.11-8.84.14,2.35-.49-1.67Zm3.93-1.85.48.08-.35.58.48,0,.54,1.63-.41.71,1,1.37-.47,1.43.21,3.11-.76.34,0,.32.56,0-.89.51v.8l-1.77-.46,1.35,2.29-1.3.37-1.28-.36-.35.51-.72-.1-.44-.6.17-5.72-.48-.24.41,0,1-1.35-.53-.48.38-.62-.46-2.24.29.36,1.54-1.92.66.51.63-.14Zm-4.25-1.62.5.29,0,1.92-.43,1-.54.12.28.41-.43.72-.42-1.67.45-2.15Zm6.51-.11-.57.64.07.69-.65-.13.16-1,.26.42Zm.47-12.32.33,1-.22,1.92.22.68.34-.37.2.32-.33.51.74,1-.52.7-.69-.9-.62-.17-.35.52-.34-.67-.41.35,1.23.51.07.93.7-.12v.49l.44-.29-.72,2,0,2.09-.64,1.12-.8-.14.19.47-.84-1-.39.15-.3.69.77,1.08-.55.53-.11-.82-.52,0-.58,1.19.39.94-.63.15-1-.82v-1.52l.51,0,.14-.55-.77-.12.18-1.52.53-.15-.25-.65.78-.27-.79-.29.38-1.79.56-.44-.67-.43.41-.52-.43-.17.37-1.39.58-.23-.5-.36h.52l.34-.58-.26-.9,1.21-.64-.25-.75,1-.17.5.36,0-1,.47.66Zm-.28-2.2.25,1.06L520,545.6Zm13.09-26.32-.62,1.44,0-.82Z" transform="translate(-0.72 -0.75)"/><path id="IN-AP" class="cls-2" d="M296.44,479.65h0Zm.65,0-.39,2.47L296,481l0-.8Zm-.65,0-.12-.62-.28.44-1.26.09-.06-.72-.9.57,1.74.76,0,1,.45.14.66,1.48L289,486.58l-4.69,1.84-3.76-1.06-3.11.37-2.66,1.32-2.6,5.69.1,1-2.91,3.08-.28.46.39.87-.95.83-3,.4-.87-1.46.26-.77h.38l-.12-.58-2.48-.87-3.13.61-2.23,1.06-1.91,1.26L254,502.23l-1.45,4.46-2.12,3.36-1.08,5,1.4,7.45,1.76,3.09-1.45,10,2.41,6.47-.17,3.85,1.65,4.41-3-5.48-.56-.25-.12,1.89-.62-.61.36-.62-.4-.07L249.37,547l2.31,2.11,1.57,0,1.58,1.4v1.13l-.76-.42-1-1.88-1.63,0-1.73-1.26-1.58.17-.08.42.89.18.06.37-.63-.07-.22.61-.7.17,0,.71-.64.3.44.64-.59.82-1.56.69-1.06,0-.43.48-.54-.44-.68.65,1.33,1-.85.61-.45-.58-.71.31.15-.56-.48.09-.1-1.12-1.85.78-.66-.46-.27-.94-2.23-.27-1.14.44,1,.46-.29,1.48.53-.37.19.27-.5.18.05.45-1.59.52.14.71-1,.7-.85-.94-1,.12v.67l-.62.42-.76,1.65-1.75-.15L226.94,558l-1.37.19-.43.69.65.36-.89,0-.13-1.42-2.72.88-.91-.23-.18,1.1-.9-.29-.78.83.69,1.28h-.44l-.91,3.16-.77.58.05,1.24-.49.13-.18-.51-.11,0-.36,0-.1.85-.65,0,0,1-1.91.12-1.63-.87-.54-.83-1.56.22.78-.72-.14-.8.43-2h1.3l.88-1.72.69.7,1.21-.12-.28-1.45.74.12-.13-1.46,1.11-.45-.06-.62.55-.34-.41-.47,1.27-.79-.59-.66.58-.36.18-1.23-.45-.8-.73.93-1-1.11-.75.2-.24-.44-.7.33-.5-.35.63-.27-.88-.48.74-4.77-3.41-.2-.93.66.22-1.28-.7-.15-.1-.54-1.57.28-.47-.68.12-.45.87.08.08-.55-.51-.5.7-.93-.1-1.37-1.52-1-.06.72-1.11-.18-.4.89h-.45l0-1.29.74-.28-.24-1.23-1.15,1.14-.51-.72-1.44-.08-.25.56.45,1-1.09.53.06.49-1.38.48-.08,1.24-.28-.62-.67.2.14-.54-.44,0-.81.44.55.43-.32.17-.54-.34-.83.58-.76-.59-.16,1.25-.52-.46-.09.58-.7.09.17-2.6-1,0,.34-.77-1.37-.22-.82.43-.27-.68-1.19.38-.34-1.19-.47.72-.14-.42-.55.46,0-1.24-.45.38.14.92-.81.16.81.61.09,1.42-1.5-.14-.73.48-.71-.7-.31.83-.4-.21-.5-1.54,1-1.69.5-.09-.11-.6-2.2-2.09.92-.91-1-1.33-.91-.08.16-.6,1-.15.1-.5,1.63.36-.24,1.6.32,1,2,.24.55,1.08,3.48-.71.84.91-.11,1.84.88,0,0,.39.74-.63-.41-.58.48-.7h-1.15l.16-.82-1.2-.33,1.45-1.73-.12-.32-.94.48.07-.61.6-.11.27-.76,2.32.3-.09-2.59H195l-.25-.8-1.19-.33-.22.64.85,1.79-.67.43-.6-.82.09-.85-1.67-.14,0-1.18-1,.43-1.67-.57-.84,1.07-.14,1.6-.63.08-.53-.65H184.2l-.27-.69.52-.46L183,530.78l.08-.94.63-.5.59.3,0-1,.62-.71-2.16.21-.89-1.18-.59-.09-.82-1.6.79-2.85-.37-1,1.43-.53.33-3.44-.77.28-1.34-.41.44-1-.22-1.18.48-.42,1.67,1.34,2.2.39.39-.41h1l-.13.51.8.11,1.57-2.59-.46-.48.54-.13v-1L188,512l.9-.82-.34-.57-.68-.09-.12-.81-1,.12-.72-2.45-1.19-1.2,0-.33,1.15.13.05-2.89,1.09-.41.73.6.19-.73-1.72-1.63.44-1.92-.87-.19.91-1.46,1.62-.89,2.21-.37,5.46.8,2,.2,1.1.76,1.19-.22,1.74.46,1.86-.66,2.39.79.72-.93.57,1.25,1,.37.34-.47h.81l.32-1.11,1.22-.62.39-2.21,1.24.05,1.88-1.13,3.21.54,1.21-.93,2,1.57,1.29.06,1.29-1.38,0-1.5.53.08.2.93.79.11-.1-1.66.42-.45,2.21-.94,3,.62L232,490l.14-5.83.85-1.15,3.36-.46,1.48-1,3.15-.69,2.66-1.46.74.85,1.08-.17.84,1.31,1.18-.09L249.3,479l.46-1.49-.77-.84-.86-.24.37-1,.76-1.26,1.84-.43,1-1.3.4.69,1.28.06.82,1.19.37,1.84.83.35.3,1,.56-.85,1.1.75.09.55,2.22.59.87-.54-1-.8.22-1,.45-.11-.05-1.14-1.94-.48-.08.67-2.71-1.15.64-.95-.46-.92.59-.46.54,1.15.53.17.76-.73.29-1.25,1.34-.66,2,1.1-.36.71,1.8-.21,2.24.85.55-.55.24-2.08h.9l-.17-1.2,1.8.47,1.16-.75,2.43-.4.4-2,1.79.05,1.2-1.54,1,.73.91-.1,1.63-1.9.17-2,.47-.67-.44-.44,1.43-2.13.11-.84,4.31-2.31.22-.45-.72-.9L286,453l3.15-1.23,1.53-1.43,2.84.31.36.72,1.34.68.54-.15v-1.35l.65-.3.16.53.51-.06.07-2.23.51.37.16-.31-1.24-1.23.56-.44.09-1.11.73-.17.44-.71-1.22-.23,1-1.14-.48-.9,2.36-2.78.52.77.51-.05.14,1.53.5-.07-.39,1,1.37.46.22.49-.73.86.09.81,1,.9.67-1.26,2.26-1,.55-1.4-.35-.54.47-.43,1,.65.83-.07.15,1,.86.34,1.77-.73.76.2.1-1.18-.44.23-.46-.56,1.55-2.06-1.19-.22-.12-.43.57-.41-1,0,.07-1.12.83-.33,1.71-2.6,1.44.67.07.58.3-1.1,1,.19.28-.71,1.61-.23.05-.7.78,0,.32-.63-1.36-1.48.71.08-.73-.75-.35.89-.49-1.6.86-.45,1.31.3,1,1.12-.14-1.19.54,0,.07-.46-.39-1.06L321,428l.43.54.25-.26.17.88-.42,0,0,.35.75.12.32-1.51.67.53.54-.84-.21-.71.6-.73,1.55,3,.55.1-.37.59.84,1.47.72.23-.85-1.56,1-.65,1.74,4.17,1.46.48,1.83-.12,1.14,1.27.86-.08.6-.61,3.78-.35.08-1.65.56.35.19-.36-.42-.35.75.12-.46-.41.68.23.66-.61-.29-.53.52-.64-.53-1,1.18.72.37-.88,1.61-1,.45,1.15.53-.92.87,0v-.63l-.72.1-.58-1,1.45,0,.08-.77.78.13-.18.69.53.52.88.54-3.73,4.29-.61,1.84L341.78,436l-2.3,3.43-4.82,4.5,0,.93-8.49,4.28-3.07,2.1-.9,1.5-2.5,2.31v.73l-1.37,1.86-2.75,2.93L302.88,467l-5,3.87-1.49,1.87-.54,2-.47.22.15,1,1.16,1,.89-.25-.24,2.47Z" transform="translate(-0.72 -0.75)"/><path id="IN-AR" class="cls-1" d="M586.54,192.27l.58.92,0,.84,1.27,1.77h1l1.47-1.19.62.69-1,2-1.81.26-1.56,1.56-1.49.41.75.58.72,1.55-.82,1.21.44.75,1.71-.88,2.06-2.13,1.87-.13,1.87-1-1,2,.21.68.66-.13.39,2.07,1.64,2.51L595.5,208l-2.37.79.45,1.19-1.38,1.21-.57-.17.12.72-1.09.08-.61.63,1,1.11-2.28,1.75,1.17.64,1.07-.19.6,1.18.49-.15.74-1.62,1.09,0,1.45-1.06,1.78-.06,1.81,1,.49,1.13,1.63.13,1-.41.57,1,1.48.68,2-1.27,1.7,1.67,2.26.54,2.48,1.79-.77.1-.69.79.18,1-.66,1,1.38.16.07.73.8.36-.78.89.23,2.12-1.42.16-.26-1-1.09.48L606.32,230l-.13,1-1.42,0-1.06,1.81-.75.11L602,234l.83,2.13-.54,1.59,5.44,7.63-.53.8-.79-.43-.77.28-1.82-1.35-2.28-.63-.26-.6.56-.41-.11-.73-.48-.1L600,240.29l-1.88-.62-.28.36-1.81-.09-1.89,1.76-1.08-.43-5,.65L584,244l-2.1,3.34-1.24.76h-1.44l-1.62,3.11-1.2-.53-1.3,2.08-1.64-.24-2.18,3.06-2.64,1-1.36-.71-.45-1.14.6-1.21-.62-.26-.14-1.22-.51-.33,1-.61-.8-3.55,1.1.3,2.1-1.75,2.29-.72,0-1.82,1.18-1.29,1.55.91,4.52-1.45,1.14-.06.7.73.26-.68,2.34-1.78-.85-1.59-.2.27-.38-.49-.7.05-.49.87-.09-.9-.45.64-.38-.31.84-1.78-.17-1.11-.87-.31-.32-.86-.78-.48.3-.6-.48-.55.37-.37-.8-1,.62-.26-.15-.38.89-1.2,2.18-1.84,1-1.91-3.17-.21-4.59.46-1.9,1.79-2.75.94-1.42-.69-6,2.27-3.57.83-.45.85-.92.13-.83.74-1.39,0-.14.42L551,235.52l-.6-1.07-1.33.62-1.45-.65-.46.26-.5-1.12-.86.71,1,1.25,0,.82-2.13,1-2,2.68-2.18,1.61-3.31,3.7.57.41.19,1-1.31.3-2,2.13-3.9.76-3-.58-6.88,1.08-2.13-1.1,0-.48-.92-.54-4.47-.72-.42.47.13.73-1.26.59-2.63,0-1.25.86-1-.21-1.6.77-3.53.2-.09-2.66-1.46-1.33-.22-2.28,1-1.44-.63-1,1.3-.05.4-.44-1.3-.93-.09-1.71-.75-1.86-1.66.45-1.6-.51-3,.28-.63-.76-.89.42-1.69-2.12.2-.78-.39-.59,1.39-1.71.33-1.39-.24-.84-.62-.47-.69.13-.46-1,2.47-.06,1,1.06,2.4.06.76,1.73,1.22.52,1.36-1.3,1.5.26,3.25-2.35,1.12,0,1.09,1.87,1.33-.39.57-.64,1,.44,1-.9,1.24.48.93-1.33,1.34-.53,1.47-2.1-1.6-1.74.5-1.48,2.36-1.81.56.72,1.44-.77,1.45-1.36.75.74.7-.77-.21-.94,4.09-.73.26-1.58-1-.93,2-1.54.62-1.45-.12-.79.58-.21.2-.76,2.27-.85.6.53.36-.72.89.6,1.81,0,2.33-.75.91.49,1.44-.92,1.72.84,1.58-2.46-.34-.54.2-1,3.36-2.69,1.24-3.08,1.53-1.53,1.45-.11.32-.89,1.24-.88,2.65-.05,1.47-2.86,1.73,1.06,1.39,1.51.43,1.83,1.55-.47,3.16,1.28-.53-1,2.11.69.49.66,2.7.15.33,1.25,3,.56.92-.07.6-.82.28-1.64,1.06.27-.19-2,1-.1.27-1,.82.28,2.92-2.54.39.48,1.77-1.32,1.6.21,2.58-1.93Z" transform="translate(-0.72 -0.75)"/><path id="IN-AS" class="cls-2" d="M454.92,282.39l.2,1.28-.52.29Zm46.84-31.33,3.53-.2,1.6-.77,1,.21,1.25-.86,2.63,0,1.26-.59-.13-.73.41-.47,4.48.72.92.54,0,.48,2.13,1.1,6.88-1.08,3,.58,3.9-.76,2-2.13,1.31-.3-.19-1-.57-.41,3.31-3.7,2.19-1.61,2-2.68,2.13-1,0-.82-1-1.25.86-.71.5,1.12.46-.26,1.45.65,1.33-.62.6,1.07,4.67-2.16.14-.42,1.4,0,.82-.74.92-.13.45-.85,3.57-.83,6-2.27,1.42.69,2.75-.94L575,226.1l4.58-.46,3.18.21-1,1.91-2.19,1.84-.89,1.2.15.38-.62.26.81,1-.38.37.48.55-.3.6.78.48.32.86.87.31.17,1.11-.84,1.78.38.31.44-.64.1.89.49-.87.7,0,.38.49.2-.27.85,1.59-2.34,1.78-.26.68-.71-.73-1.13.06-4.53,1.45-1.54-.91-1.19,1.29,0,1.82-2.28.72-2.1,1.75-1.11-.3-1.79,1.78-1.85,1-.75.16-1.2-.79-.88.46-1.76,3-2.42,1.71-1.22.33-.51-.48-.61,1.12-.62-.46-1.62,1-.11.8-1.14.49-.18,1.91-1,.55-.73,1.07-.47-.42-.09-1.94-.27.12-1.89,2.29-.23,2.7-1.41.42-2.16,3.55-.29,2.34-.76,1.51.52,2-1.33.74-.7,1-.84-.39-1,1.12-.33-.74.39-1.47-.53-1.3-.45.68-1.34.63.37,1.41-2.77,2-1.53,2.41-1.52.57-2,2,1.34,1.9,1.38.68.34,1.27-.55.82.47.8-1.79,1.46-1.11,3.45-.65,1.1-.76,0-.41.71.29,1.55-.47.29.27.46-.5,1-.67.48v1l-.93.49-.64-.69-.27.23-.05,1.56-.66.72.6.8-.61,1.82.66.29-1,.2.24.31-.77,1.47.07,2-.81.18-1.35.18-.51-.4-.13.42-.89-.11-.71.49-1.33-3.27L514,309.7l-1.39.51L512.3,312l-1.28.17-.4,1.56-.95.35-.1.47-.93-.25-.3-2.3-2.63,0-1.76.06,1.25-3-.86-1.85v-1l.42-3.51,1-1.82-1.21-3.73,1.21-.47,1.95,1.6.86-.05.35-.57.89.07.28-.7-.33-1.14-.43.27L509,296l.46-.09-.28-.43-.67.08-.06-1.36.79-.12.44-1.64,1.22.2-.38-.93,2,.51,1-1.36,2.88-1-.83-.7.57-.82-.16-1.09-.5-.06-.49-1.06-.4.14-.93-1-.28.16-.13-.58-.94.43-.23-1.27-.64.1,1.61-1.61.19-1.27-1.07.8-.63-.06-.31-1.19-1.17-.26-.76-1.37-.69-.2,0-.93-1-.52-1.08.66-2.19.21-1.43,1-.16-3.25.56-1.33,1-.86-1.3-.11-.15-.76,3-3.11-1.17.38-1.32-.39-.94.78-1.68.3-1.3-.19-1.44,1-1.09-1.22.12-1.05-1.18-.49-1.85,1.38-.23,2.44L492.58,274l-1.22-.8.56-.57-.12-1.34-1.18-.24-1.55,2.6.62-.07-1.19,1.21.7.09.45-.51-.09.39-1.69.73-.54-.31-1.78.36-1.22,2.13-1.08.54-.67-.14-.25-1.08.35-1.91-2.79.89-.28-.2.6-.55-.62.09-1,.62.6-1.53-1.29,0-.52-1.39-.57.1.07.69-.75-.89-1,.31-.57-.32-.66,1-.79-.16.15-1L472,273l-1.28,1.2-.38-.31.47-.58-1-.52-1.47,1.47.46-1.43-1.2-1.32-1,.61-.68-.59-.66.09-.85.84-3,.69-1.34-.39-2.38,1.91.36.3-.29.44-1.33.52.22,1.15-.45.69-.86.22,2.61,3.07-3.08,1.34.32-2-1.06-2,.19-1.17-.61-1.13,1.59-2.85-.82-.15-.21-.4.71-.28-.75-.8v.68l-.35-.09-.4-1.26L453,271l.54-.48-.13-.66-.8-.53.24-.43-.41-.65-.68-.25.33-.2-.83-.33.78-.54-.73-.11.66-.49-.5-.74.43.27.25-.29-.41-.81.86.38-.17-.75.63-.21,0-.52,1.57-.73-.22-.42-.41.14.91-1.47-.37-.65.19-2.1.33-.15-.43-.91.4-.61-.41-1.26.12-.77,2,.32,3.94-.74.9-.37-.1-.91.64-1,1.82.13,1.12-1.12,1.14-.13,3.15,2.35,3.19.78,7.15-.28.89-.94,3.47.35,1.55.59,1.51-1.3,1.77,1.06,2.74-.73,1.33.38,2.4-1.1,1.17-1.45.82-.05,1.85,1.36,1.26.25.91-.32Z" transform="translate(-0.72 -0.75)"/><path id="IN-BR" class="cls-2" d="M418,259.32v0Zm-83.44-22.77.7-.07,0,.73,1.19.38.05.63,1-.22.83,1.59,6.82,1.08,1.49,2.89-.35,2.79-.66,1.13,2.39,1,.33-.35.44.51.76-.55,1.29,1.16,1.48.22.34.47-.23.56,1.94.69-.79.73,3.62-.26-.39,1.27.7,1.24,2.6.41,1.53-1.16,1,.21,3.79-2.1,2.1,1.78-.05,3.3,1.79,1.2.7-.16,0,1,2.06-1,.26-.88,1.42-.36,2.31.88-.05.53,1.17-.19.53.61.73-.67,1.56-.06,4.5,1.89.6,1,3.36,1.74.72-.85,1.42.46,1.28-.53-.05-.56.8-.08.06-.64,1.72-.35.62-1.29.57,0,.41,3.15,1.49,1.08,2-.17.2.87,1,.05.6.55.59-1.4,2-.75,2.92,1.38,1-.29.54-1,1.17.64.69-.11.49-1.32,1.23.76.83-1.17.81,1.6,1.35.59.13.64h.68l.1-.63,1.26-1.07.18-2.28.82.57.48-.61,1.32-.34,0,.45-1.13,1,.3.43.68-.1.06.68.82.59-.79.64.15.44.63-.14.51.63-1.63,1.68-1.46.67-1.56,1.79-.68,0-.51.86-1-.26.08,1.64-.63-.07-.14.35-.39-.51-1.48,1.08-.25,2.53-.55.54.4.94,1.84.45-.57.54.56.32-.25,1,.71,0,.6,1.07,1.83.79-.27,1.24.39.1-.69,1.06.31,1.15.77.76-.05.54-.89-.13-.43-.56-.06.38-.37-.2v-.51l-1.26-.26-.57.73-.41-.27-.33,1.17-.62,0-.53.7-.57-.24-.46.91.13.63.49.13-.1.92,1.52,1.25-.71,1,.29.81-1-.49-.09-.59-1.58-.23-.49-1.24-1.62,0-.56-.85-.68.4-.17,1.14-1.21-.32.29.76-.48.49v1.07l-1.68-.76-.46.52-1-.42-.68,3.08-.85-.38-.82.37-1.35,1.5.23,3.19-.15.62-.76.07-.75.76.38.48-1,4.46-2.52-.82-.67,1.28.27,1.1-.73-.66-.45.39-.37-.41-.77.09.12-.69-.6-.58-.55,0-.41,1-1.32.35-1.37-1-1.18,1.61-.86.39-.35,2.12-.48.07-.29,1.22-.76-.24-1.36-1.48-1.5-.42.7-1.06-.18-1.14.4-.59-1.23.19-1-.82-.47.61-1.29-.42-.19-2.33-.79-.94-1,.11L375,300l-2.1,1.09-1.52-1.56-2.11,0-.84-.55-.84,2.51-1,.6.32,2.41L365,304l-.17.86h-.66l-.39.94-.66-.61-4.27.56,0,.67-2.74.79.39.76-1.68,1.15-.5-.18.23-1.21-.48.57-1.32.06-.46.83-1.47.09-.38-2.07-.95.23,0-1.35-.78-.41-2.44,1.67-.43,1.43-1.8-.42-.14.65-.92.17.08.85-.67,1.19-.82-1.18-.77.17.1-.64-.84-.69-1-.14-.44-.64.32-.17-.77-.45,0-.69.67-.5-.7-1.45-.5,0,.23.28-.48.49-.46-.51-.37.41-.61-.46-.32.18.13.84-.69-.68-.13.81-.63.54-1.32-3-1.14-.59-1.34,2.07-1.26.34-3.17.64-4.58-.51.91-2.27-.92-.58.34-.68-.69-.56,0-.73-.56.1-1.39-1.17.08-1.12-.76-.86-.22-3.21-.53-.16.82-2.45-.47-1.32.3-.4.81-.19.44-1,1.07-.06,1.66-1.51.51.21,1.22-.49.59-.88.81-.08-.29-.17.41-.4.19.23.6-.57.61.53.79-.54-.11-.47.92-.12-.58-.67.85-.18,1.38-2,3.34-1.82-.14-1.34.52-.58,1.12-.24,1,.63.18.78,1.73.19-.05-.36.74.12.26-1.68,1-.09.46,1.14,1-.35.83.84.76-.15.24-1-.1.78.44.2.07-1.21,1.57.19-.63-.75.41-.77-1.33-1-.62.08,0-1-2.2-.34-.31-.9-1.2-.64-1.15.28-2-1.24-.74.21,0-.79-1.6-1.64-.88-.08-.64-1-.14-2.22,1.42.45.7-.94,1,.37.47-1.65-.22-1.32-2.07-.25-1.28-1.49-.61.33-1.67-.37v-1.58l1.26.23.25-.55,1.54-.27.73-1.3,0-1,4,1,3-.65-.25-1-1.6-.3-.58-1.61-1.06.56-.28-.24-.2-.41.58-1.21-.23-1.25-.67-.2-.84.85-.78-.49.19-.75-.84-.31-.23.56-.79-.35-.09-.93-.48-.26.45-.45-.12-1.93-1.05-.56.63-.63-1.7.06.82-2.51-.51-.81-1.18-.57.58-1-.19-.5-1.3.33-.53-.27.62-.66,1-.78-.69-.18-.11-.86,1.32-.49,2,.37,1.43-1.31.05-.64Z" transform="translate(-0.72 -0.75)"/><path id="IN-CH" class="cls-3" d="M181.73,160.93l-.53.4-1.43-.65-.75-1.55,1.44-.95.21.54.56-.21-.06.46.73.07Z" transform="translate(-0.72 -0.75)"/><path id="IN-CT" class="cls-1" d="M317.87,315.48l2.14.4.46.94,1.24.33.75,3,.7.31-.31.49,2.81,1,.71,1.5-.31,1.64,1.26,1.88,3.36.83.05-1.35,1.45-.22.33,2-1.11,2-.08,1.69.85.64.77-.48.57,1-.77,4.34,2,1.29.39,2.66L336,340l.57,1.07,1.14-.28.15.63,1.92-.32.39.83-.4,1.67-.85.12-.92,2.17h-.65l-.61.62-.1,1.5-1.48.78-1.45-.05-1.58,1.51-.05,1.1-.47,0-.09.45,1.37.85-.78,2.18-3,.53-2.27,2.27-1.25-.06-1,.47-1.81,2.72.86.86-1.3.23-.07,2.06.38.7,1,.48-.6.87.27.64-1.12.26.11.85-.95-.46-.5.71.36.93-1.35,1.49,1.35,1.1-.66.46-.24-1-1.27.82-1,2.62.32,1.16.91,1,.19,1.14-.58.19-2.2-.78-.33,1.4.43.6-1.18.56-.59,2.79-1.47.77-1.66-.4-1.77-1.27-1.61.59-1.39-.21-.5.43-.76-.45-2.44.23.19,1.06-.75.68.28.77-1.46,2.12-1.41.85-.55,1.77-.91-.06-.3-.8-1.15-.47-.24,2.79.7,3-.93,1.56,1.18,1,.16,1.27.46-.46.4,1.05-.74,2,.74,1.16-.5.44.18,1.35-.73,1.28.25,1.89,4.34,1.63.7-.31,1.59.21-.15,2.15.36.5-.31.88-1.2.12-1.26,1.2-.29-1.13.46-.93-3.16-.86-1.12.47-1,1.15L295,407.65l-1.1.44-2.52-1.59-.7.88-1.74-2-1.57,1.47-.61,1.9.26.93,2.32,1.18.41,1.31,1.67.28-.47,1.75.18,3.65-.49.81,1.46-.18.57,1.9,1.33.14-.35,1.14-.53.09.88.93-.66,1.19.57,2.35-.4.72.84.2.26.59-.38.67.65,1,.3,2.29-1.4.33-.24,2.3-.67.73-1,0-.06,1-.94-.15-1.38.62-.42,1.36-1.3-.47.06.64,1.39.76-.16.6-.8-.11-.25.79-.82.33-2,2.23-.36,1.45-1.82.13v.62l-1.36.22-1.37.92-.49,1.65.37.58-.29,1.42-.73,1.4.08,1.28-.84,2.06-.91-.2-.19,1.71-2.74-.12-2-.88-1.81,1.45-.86-.08-1.85-6.37.62-1.91-2.33.78-.29-1.42.4-.21-.79-.59L265,448l-1.32-.12,0-1,1.15-.77-.91-1.05-.59-1.77.21-.57-.74-.23.16-.37-1-.79-.37-1-3.13-2.4-3,.91-1.56-2.89-.53-.92.72-.11,1.51-1.3-1.7-2.3V430L255,428l.06-1.46,1.29-1.05-.06-1.1,1.12-.49.81-1.63,1.93-1.45.88,2.07,1.3-.43.34.95,1.27-.08,2-1.63-1.19-1.45,2.18-.86-.28-1.18L266,418l-.37-.74-1.28-.13-1-.88-1.34-.09.19-1.76-2.64-1.83.06-1-1.54-.12.19,1.15-.54-.45-1.21,0,.06-.48.72.13,1.37-1.29-.31-.67-1.57-.15,0-.59.78-.45.77.55.83-.06.53-1.25v-1.74l-.12-1-.88-.64-2.18-.11-.17-.42.59-.61-.65-1.14,2.67-.62.66-.83,1.58-.59-.66-1.38.76-4.62-1.15-.19-1.16.6-.64-.71.55-.83,1.52-.65-.73-1.82-.08-3.75-1.8,0-.67-1.73.5-.6-.3-1.35.5-1.69,3.73-1.72.79-1.08-.34-.72,1.54-3.16-.44-2.57.19-2.8.51-1,1.43.23.43-1.28.1-2.94-.38-.47.58-.09,1.36-3.56.83.14.27,1.23.75-.07.09-.8-.69-.39.95-.41.07-2.17,1.37-.39.61-1.08-.08-3.3L273,352l.81.86,1.19-1.07.6.4.39-1,1.17.43.38,1.44.58-.86.49.27-.21-.6.88,0,.82-1.05,2,0,.17-.57.52-.11.17-1.42,1.06-.4.33-.6.37.64.46-.35-.34-1.42.79-.91-.49-1.53.18-.88,1.82-.39.08-.55,1.68-1-.46-1.9.41-.83,1.8-.05.9-.83,1,.29.74-.86-.18-1.94,1-1.29-.07-.93-1-.82-.56.13-.26-.95-1.11.45-.65-.22,0-.81-.83.24-1.25-2.71-1.87.48-.47-.79-1.44-.49-.9,1-.8-.18-.55.93-.45-.37,0-1-.59-.1-.16-.77.69-.26.22-1.38h.63l.92-1.39-.27-.74-.73-.39-.19-1.36-.67-.52.26-1.21,1.06-.42,1.29,1.51-.08.43,1.33.65,1.47-.29,1.33-1.11.72.46,1-.23.94,1h2.45l.87-.75-.1.48.56.57.61-.34,1.53.41,2.76-.17,1.17.61.6-.22-.36-.68,1.22,0,1.39-.77.09-1.17,1.92-.33,1.25-.93,2.74,2,3.1-.05,2.15-1,.55-1.56,1.26-.77.27-1.13Z" transform="translate(-0.72 -0.75)"/><path id="IN-DD" class="cls-3" d="M53.07,390.66l.11-1.8,1.31-3.25.62.65,1.57-.22.85.57.28,1.32-1.74.77,1.66.59,0,.67h-.56v.68h-.47l.92,1.21-.38-.2.07.32-1.08.3Z" transform="translate(-0.72 -0.75)"/><path id="IN-DL" class="cls-2" d="M189.41,204.58l.64.75-.43.95.58.18,1.26,1.79.81-.09-.26,1.7.53.85-.89,1,.92,1.37-2,.58-.35.49.31.83-1.57.48-1-.8-.22-1.22-.74-.63-.5.13-.89-.66v.67l-.78-.31-1.86.44-.88-1.14,0-.81.41,0L183,210h1.17l-.35-.46.78-1.15-.26-2.73,1.87-.39.93-1.13,1.1.45.22.57Z" transform="translate(-0.72 -0.75)"/><path id="IN-DN" class="cls-3" d="M106.29,404.9l-.63,1.53-1-.69-1.65-.33-.17.7-.89-.95.15-.54-.59.48-.33-.39.28-.9-.34-.91-1-1.47.45-.33.79.48.14-.45.63,0,0-.59.51.58.13-.7.85-.09.34-.75.12,1.24,1-.27.36.68-.43-.09-1,1.29-.7.05.11,1.63.23-.39.66.39.53-.36-.09-.76,1.34.21.39.38-.68.9Z" transform="translate(-0.72 -0.75)"/><path id="IN-GA" class="cls-3" d="M116,501.1l3.21-.29.68-1.29.35,1,1.32.17.5,2.1.61.72.61.14,2.06-1,1,0,.35-.62.48.69.39-.38.49.27.28,1-.3.94.69.86-.64.79.55,1v1.18l.95.46.28,1.61-1.76.76,1,.74.32.84-.68.88-.23,1,.5,1.21-.85,1.06.17.52-1.21,1-.84-.64.07.91-.75-.25-.88.54-1.14-.5.22-.85L122,515.31l-1.15-.39.76-1.33-1.12-4-.45-.83-.68.21-1.22-1.08,2,.3.42-.39-1-.81-1.29-.2.38-.72h-.86l-.6-2.59Z" transform="translate(-0.72 -0.75)"/><path id="IN-GJ" class="cls-2" d="M31.17,352.69l.62.7-.43.49-1-.69Zm-10.27-.41.21.32-1.3.95.18-.91Zm18.26-2.61.37.57-1.44.42.15-.64ZM8.78,333.39l1.13.39.06.57-.89.23,0,.36-.75-.59.62-.23ZM9.43,332l.6.46v.6l-.83-.56-.2-.45ZM7,329.61l.46.55-.23,1.21L6.69,331l.08-.81-.85.76-.18-.28ZM7.19,327l0,.81L6.11,329l.11-1.12Zm-.54-.63.21.54-.54.33-.12-.68Zm-2.05-4.1.83.46.59-.23-.75,3.2-1.58,1.61-.85-.19.39-.19-.41-.39-.65.25.17.36H1.73l.1-.38-.59.23L1,326.34l.38-.53,1.36,0L4,324.08Zm-.81.14.1,1.47L3,324.5v-1.93Zm3.7-.73.43,1.74-1.66.35.4-.79-.18-.74Zm-2.33-.72.58,0L6,322.11,4.79,322l-.15-.52Zm1.19-1.65v1.47L5,320.6l-.57.7.06-1.13Zm1.9-.06.47.48.55.13-1.34,1.24-.55-.22,0-.5.92-.67ZM7.19,318,8,319.52l-1.57,1.72.53-1.88L6.64,319l-.58.23.42-1ZM6.1,317.9l-.42,1.38L4.32,320l-.15,1.87-.35.27-.36-.39-.8.72,0,2.3-.59.24-1-1.13.88-1-.45-1.36.45,0,.89-1.8,1.21-.06.52-1.37.76.28Zm56-15.66,4,1.67,1.12-1,.67.72,2.2-1.19,2.69.07.94.86,2.88-.86.26,1.12,1,.4.38-1.63.91.18.51.93,2.26-1.81.69.2v1l1.69.88.94,0,.41-.47,1.78.55.81-.21-.58.72-1-.3-.59.45.92,1,1.32-.33.59,1.19,1.18-.08-.13,1,.59,1.22.9-.06-.15-.93.92-1.29.92.78,2.28.35-.08.87.82,1.33,2.84-.11,1.16.91,1.42-.86L101,309l.77-2,.27-.27.8.39.9-.67.3,1.56-.49.73,1.78,1,.85-.56.43.24-.42.7-.38-.22-.26,1-.75-.14-1.3,2.8.66,1.06,2.29.92-.52,1.07,1,.93,1-.38.87-1.06,0-.94.8-.3-.08.92.93.84-.18,1.38.41,1.35-1.31,1.58v1.69l.28.47.93-.28,1.23,1.6.61.12.11,2,1.33-.87,1.75.73-.5,1.7.45,1-.54,1.17.43.27,1.07-.34.46,1,.81-1,.38.55,1-.28,1.3,2.49.93-.1.18-.73.49-.08.42.9.87.12.25.82h1.2l.67.59-.14,2.05,1.17.61.51-.9.81.08.88,1.58-.11.53.84.73,1,1.87-.61.35.43.71.8.77,1.07-.56.58,1.48-1.59,2.89-.4,2-2.48,0-2.35,2.88-1.81-.76-.67,1,.17.39.88-.39-.15,1,.53-.05.41,1.06.45-.81.35.56.54-.27.08-.76.29.91,1,.1.84.86-.76-.12-.65.93-.42-.2-.33,1-1.19-.24-.47-.88-.83.26-.27,1.67.68.95-.33.49,1,.2.16,2.59.51-.18.54.43-1.73,1.59,1.17.66-.16.72-7,2.94.72.73-.28.62,1.36,1.4-.22,1.24-2.06.45.78.6.76,2.29,4.37-1.43h2.44l.46.64.62-.42.67.32.75-.66.48.53,0,1-1.64.74-.43-.38-.13.46-2-.1-.42.35-.88-.76-.39,1.4-1.67.61-.33-.23-.09,2.34-1.18.79-1.26-.12-.2,2.14-1.69.1-.11.65L116,382l-.94.43-.49-1-.52.19,1.5,1.32,1.94-.12-.22,1.3.68,1,.69-.27.18.59,1.89.29-.24,1,1,2.22.09,2.18-.6.42-.74-.14-.46.79H119l.47.59-.15,1.15L117.43,395l-1-.24-.64.35-.71-.37-.61-1.27-1.44-.84-.84.46-.33-1.42-.61.15-.29,1-.77.5.78,1,.85.26,0,.9.4.06-1.49,2.8-.8.54.67.84.14,3.24-1.17.3-.14-.46-.31.33-.87-.19-.46,1.28-1.53.61-.42-.4.67-.89-.38-.39-1.34-.21.09.76-.53.36-.66-.38-.23.38-.11-1.62.7-.06,1-1.29.43.09-.36-.68-1,.27-.12-1.24-.34.75-.85.09-.13.7-.51-.58,0,.59-.63,0-.14.46-.79-.48-.45.32,1,1.47-2-.29-.83.88v.91l-.7-.08v.52l-1.34-.26.37-3.44L98,399.38l1.33-2.87.26-1.93-2.2-6.88,0-1.09-.45.22-1-2.53,1-.4-1.36-.16.32-1.54-1.12-.27-.17,1.5-.66.27-.19-3.27-.64-1.54.79-2L95.42,375l-1.08.69.6-1.94.65-.26-.45-.24-1.21,1.13-.59-1.34.64-1.45,1.53-.77,1.81.14,1-.51-1.16.11-.91-.6-4.16.57-.64-.83.69-.77.62-2-1.09-.74-.32-2.2,1-4.39.71-1.12,1.38-.37,2.23,1,1.14-1.63,1.45.5.51-.24.26-1-.38.71-.62.08-.48-.89-1.92,1.15-1.35-.16-1.12-1-2,.93-.08-.69L91,358.59l.14-.89-.46,0-.75-1.41-.88-.41.41-.88-.7-.6-.38.31.7.48-.45.84.86.34,0,1.58-.35.63-.91-1.61.12,1.48.61.83-.32.41-.42-.75L88,360.22l-.41-.12-1,4.45-.77-2.64.94-.55.23.24,0-1-1.36,1.2,0,.84-.27,1.56.68,1.09.26,3.57.87,2.51-1.73,4.24-2,2.41-.35,1.08-.69-.44.44.59-.32.68.67,1.1-2,.94-.22.48.06-1.19-.71,1.45-3.29,1.09-.48.34.21.43-1.92.38-3.13,1.58-1.06,0,0,.57-1.58,1.17-1.31-.09.14.37-3.67,1.23-1.12.53-.13.46H61.81l-.28.46-2.45-.09-1.51.69-.72-1-.2-.24h.47V390h.55l0-.67-1.66-.59,1.74-.77-.27-1.32-.86-.56-1.57.21-.62-.65-1.31,3.25-.11,1.8-1.24-.14-3.67-1.85-7.11-5.61L33,373.58,34,372.47l-.55-1.61-.28.4-1-.14.87.82-.46.2.6.49-.39.72-9.9-9-5.76-6.63L16.7,356l1-2.3,1.74-1.49.37.19-.87.88.53.83,2.62-.63.21.5-1,2,1.57,1.24,1.82-.75.29-.87,1.8.31,1.37-.45.81-1.16-.53-1.08,1.09.69.24,1.1,1.94-.07.2-.78.73-.05,0-1.06-.55-.17,1.18-.52.34,1,.32-.25.8.94.8-1.22.71.17,1.28-1.4.55.3-.1-.77,1.81-.75.54.36,2.05-.11,1.68-2.5.2-1.6,1.06-.54,1.06-2.56L47.83,342l1.47-3.23-1.17.29-.75.72-.31,1.86-.82.4L44,341l-.37.52-1.22.32-.81-.41.19.81-7,1.67-1,.7-1,1.79-1.32-.57-.88.15-1-.75-1.72.43-2.46-1.25-3.3-.22-8-5.18L13,338.67l-3.51-3-.15-.43,1.83-.84-.65.08-.08-1.82-.65-.78-1-.12,0-.75-.52,0-.7-1-.28-3.77.24-.56.42.06.09-.82,2.26-1.54.7-1.15,1.48-.8-.42-.31-2.34.44-1.65,1.84-.23-1.54.65-.25.55-1,1.9-.85-.89.09-.52-.63-.16.44-.62,0L8.35,319l.2-.36,4.23,0,.49-7.58,1.13-.32.45,2.28.83.29,1.25-1.85,1.12,1.16,1.93-1,2.24.78,2.31-.95,4,.5,2.09-.53,2.59,2.35L39,314l1.23-.61,1.25-2.23,9.54-3,.77.45-.83,1.28.32.79L51,312l1.69.62,3.15,0,1.85-.78-.18-.77,1.56-1.27.81-.33,1,.31,1.77-1.25-.27-.67-2.32-.25.15-1.85-.35-.42.46-2Z" transform="translate(-0.72 -0.75)"/><path id="IN-HP" class="cls-1" d="M161.9,114.67,163,113l-.57-1.17.34-1.64-.81-1.4-1.66-1.4.28-1.48h1.24l1.64,1.12,2.86-2.08.24-.89,3-.69.78-1.78,2.45-2,1.62.17L176,99l.72.06.94,1.11,2.16-.42.53-1.75.48-.15.51.47.54-.24-.52,2.26.85,1.08.69,0,.84,2,1.7,1.1.77-.25.83.65,1.29-.18.2,1.66.58-.43,1.14.88.22.76.41-.28,1,.55.47.85.6-.13.65-1.5,1.42.59.61-.61.74,0,1.34-1.4,1.46-.39.25-.66,1,.35,1.63,1.65-.6,1,1.8.9.7,1.31.72.23-.25,1.81,1.66,2.64,1.11-.14,0-1.08.66.28.59-.93.59.49.65-.91,1.26.24,1.73-1.08-.16-.62,1.75-.59L214,112.3l.53,1.21-1.93,1.13.06,1.19-.44.53.67.79,1.51-1.33.59.45.72.34-.15,1,1.69.94-1.14,1.63,0,1.68-.56.93,2.1-.09,1.12.77-.39,1.48.48.9,1.06.37,1.74,2.44.83.2-1.66,5.06.69.72-.28.56.49,1.21.95,0,1.07,1.82-2.6,2.37.2.82.68-.14,1,.92-.4,1.26,1.06.49,0,1.25,1.63,1.73.18.83,1.24,1.14.46,1.53-2.62.2-1.11-1-.49-1.41-3.09.25-.28-.66-.81-.36-1.22.73-1.41.07-.54-1-.52-.38-.45.29-.87-1-1.21.06-.1.54-.51-.13-.77.89-1.77.08-1.26,1-1.21.14-.33.74-1.24-.58-1.41.58-.94,1.79-.88.46.52,1.32-.61.93.44.39-1.12-.57-.61.43.23.9,1,0-.14,1.59-.93-.55v1.25l-1.17,1.48,1.1,1.4-.16.61,1,.53.06,1.08-1.1.5.68.86.87,0,.15.74-.24.53-2.51,1.44-2.06.52-.37.62.25.48-.67-.3-.7-1.25-.48.88-1.47.1.77-.78-.06-.6-1,1.13-1.15-1-.73.2-1.24-.74-1,.1-.36-1.1-1.14-.38-.4-.62,1-.79-.12-2.2-1.57-1.31-.9-.26-.44.32-.51-.84.2-.91-.4.38-.53-.3-1.08-2.09-1,.65-.77-.62-.11-.83-.85.58-1.2-1.39-2.14-1-.23-1.2.56-1.38-.77-.42,0-1.34.94-.74-.2-.34-.95.26.44-.84-.65-.71-.74.6,0-.7-.4.53-.08-.51-.54.24-.45-.9-.75.67.36-.56-1.44-2.08-.34-1.23-.08.63-.91.33.44,1.2-.86.26v.56l-2.58.31-.13-.85-.66-.49.39-1.28-3.16-5.68-1.69-4.18,1,.06-1.61-3.32L160.05,129l-2-1.65-.84-.38-1.07.27-.41-.39,1.74-2-.87-.5,0-1.22,2.38-1,2.25-2.6,1.85-.93-1.7-2.25Z" transform="translate(-0.72 -0.75)"/><path id="IN-HR" class="cls-2" d="M180.68,155.58l.85-.58.11.83.77.62,1-.65,1.08,2.09.53.3.4-.38-.2.91.51.84.44-.32.9.26,1.57,1.31.12,2.2-1,.79.4.62,1.14.38.36,1.1,1-.1,1.24.74.73-.2,1.15,1,1-1.13.06.6-.77.78,1.47-.1.48-.88.7,1.25.67.3.35.33-.45,1.44-.91.7-1.12,2.26-1,.48-.54,1.2.35.28-3,1.42-.15,1.11-1.74,2.3-.58,2.72L188,183l.55,1.56-1.21,2.52.51,1.15-.52.46,1.14,2.19-.29.75.44.5-.62.31.06.65.71.34-.51,1.49.31.71-.4.44.31,1-.38,1.82,1.93,2.38-.5,1.19.65,1.23-.82.34.1.55-1,.6-.22-.57-1.1-.45-.93,1.13-1.87.39.26,2.73-.78,1.15.35.46H183l-.49,1.08-.41,0,0,.81.88,1.14,1.86-.44.78.31v-.67l.89.66.5-.13.74.63.22,1.22,1,.8,1.57-.48-.31-.83.35-.49,2-.58,2.86,2.27.42,1.3-.64.48.67.73-.06.63-.54.26,1.55.52-.54.42.08.66-.63-.24.06.64,1,.08-1,.51-.08,1.46-.3-.23-.19.52.21,1,1.18,1.19-.52.6.56.24-.38.61-1.06,0-.21,1.12-1-.26v.88H192.6l-1.33,1.24-.27-.22-.65.71-.79-.85-.53.87.25-.55-.63-.17,0,.56-.52.36-1.85-1-.37,1,1,.34.25.6-1.79-.08-.49,2-.76-.42-.66.39-.45-1,.7,0-.64-.7.42-2.4.47,0,.26-2-.41-.13v-1.72l.9-3.45-2.33-2-1,.35-.2,1.29-2.94,1.42.18,1.84-1.27.21-1.28.93v-1.62l-1.77-.25.92-.35-1-.67.26-.44.77.12-.56-1.14-2,.4-.85-.93-1.19,0,1.6,1.18-1.22.65,1.2.64-.28.9-.92.23-.32-.77-.65-.29-1.54.28.76.65-1.23.77.51.62-.27,1.36.68.38-.12.82.63.54-1.05.79-1.78-1.43-.8.48-1.82-.4.3-1-1-.17-.11-.39.31-.42.52.33.49-1.12-.64-.39.72-.21-.43-.49.84-.14-.1-.42.63-.46-.41-.35-.66.9-.05-.7-1-.31,1.92-1.87.81.12,0,.55.58-.26-1-1.12.17-.51-.88-.41.16-.93-1.34-.89-.68-1.19-.69-.59-2.49-.33.17-1.18-3.13-2.09-.23-1.34-1.3-.29-.56-3.22-.64-.89.31-1.16-1-2.14,1-1.17-.12-.84-1.6-.14-.09-1.14-1-.14.33-1.38-.74-.34.83-1.1-.1-1.75-.79.18-.27.68-.63-.24.09-1.37-2,1.4-.91-.81-1.5,1-.63-.13-.8-1.31-1,.37-.8-.24-.54-2-1.8-.94-1.77,1.15-2.23-.39-.17,1-1,.07,0-.81-.81-1.35-.56-.15,0-.59.28-.41.76.19.74-1.64-1-.87.81-4.54L135,183l-1.27.65-1.13-.06-.14-1,1.85-1.87-.42-.89-.6-.12.3-.86,2.67.93-.14-.43,1.06-1.12.7.18,1.61-.74,1,.8.66-.22.08.7.64-.24,1.55,2.23,1.59-.54.4-.87.41,1-.48.57.54.55-.36.47,1.34.62,0-.93.56-.45,1,2.07-.78.65,0,.9-.78.6.32.78,1,.56.05,1.45,1.52-.53.18-.48-.5-.52.78-1.45.68.27-.32-.83.91-.42,1.37-2.31,1.42,1.14.93-.14.26.56.93-.09.26-.64,1.5.43.18-1.28,1.38-.4.51.43L161,182l1,1.56,1.79.38,1.11-.59.37.22.88-1.41.81.22,2.63-1.74-1.2-.47-.38-1,.79-.38-.28-1.73.52-.26-.36-.26L169.9,175l-1.34-.73H169l-.16-.58,1,1,1.51.26.54-.47-.48-.52,1.34.52.25-.73-.44-.61.61-.46.88,2.45.81.08.22.5,1.12-.54.46.57.51-.12.54-.61.25-2.42-.72-.22.16-.38-.59-.62-1.08.71.32-.91,1.3-.14,1.36-1.33.85-.17.49-.65-.57-.13-.24-.69,1.21-1.09,1.06.65.5-.53,1,1.15v.64l1-.7-.81-1.26v-1l.65-.81-.74-.54.6-1.44-1.15-1,.08-.93-.58.56-.31-.72.17-1.89.39-.7-.39-1-1.23-1.07Z" transform="translate(-0.72 -0.75)"/><path id="IN-JH" class="cls-1" d="M321.53,305.76l4.57.5,3.17-.64,1.27-.34,1.33-2.06,1.14.59,1.32,3,.63-.53.13-.82.7.69-.14-.84.33-.19.61.46.36-.41.47.51.48-.48-.23-.28.5,0,.7,1.44-.68.51,0,.68.78.45-.32.18.44.63,1,.14.84.7-.11.63.78-.16.82,1.17.67-1.19-.09-.84.93-.18.14-.65,1.79.43.44-1.43,2.43-1.68.78.41,0,1.35,1-.23.37,2.07,1.48-.09.46-.83,1.31-.06.48-.57-.22,1.22.5.17,1.67-1.15-.39-.76,2.75-.79v-.67l4.27-.55.67.6.39-.94h.65L365,304l1.84.48-.31-2.41,1-.6.84-2.5.85.54,2.1,0,1.52,1.56L375,300l-.24.88,1-.11.8.94.18,2.33,1.29.42.47-.61,1,.82,1.23-.19-.39.59.17,1.14-.7,1.06,1.5.42,1.36,1.48.77.24.28-1.22.48-.07.36-2.12.86-.39,1.17-1.61,1.37,1,1.33-.35.4-1,.55,0,.6.57-.12.69.77-.08.37.4.46-.38.73.65-.28-1.09.67-1.29,2.52.82,1-4.46-.38-.48.75-.76.77-.07.14-.62-.23-3.18,1.35-1.5.82-.38.85.38.68-3.07,1,.41.46-.52,1.68.76v-1.06l.48-.5-.29-.75,1.21.31.17-1.14.68-.4.56.85,1.62,0,.49,1.24,1.58.23.09.6-.23,3,2.1,1.45,1.88,2.26.14.76-1.77,1,.2.65-.64,0,.19.67-.47.67-.4,0,.05-.57-.41.51.45.63,1.28.38-.3,1.09.57.36-.61.73.36.32-.61,0,.78.39-.47.71-.82.27-1.65-.7.77.83-.23,1.24.24-.45.34.37-.8,1.83.53.18-1.12,2.35-1,.27-.6,1-1,.09,0,.71,1.15.58-.06.83-2.51-.14.79.61-.8.51.15.49-1.73-.68-.05,1.44.4.28-.58.59-1,.12.5.62-2.12-.64-.6.3-.26-.19.35-.61-2-.23.49,1.71.63.24.06,1.3-.5.59-.47-.78-.11,1.84-.51-.1-.63-.23.15-.31-1.35-.29.74,1.08-.37.57h-.52l-3.29-1.6-.64.47-.86-.8-.42.4-.08.41-1.06.75-.58-.46.56,1.6-.58,1.68-1.13.22-.13-.37-.79,0-2.14.54-1.32,1h-1.86v.47l-1.22.56-.49.94-.08,1.05.38.32-1.51.88.3.35-.3.19-.45-.48L379,331l-.39-.37.3-.77-.37.31-1.58-.39,0-2.15-2.05-.36-.75.73.76,1.32-2.16.88-1.63-.35-.07,1.37.69.89-.62.13.25.93-1.08,1.38.11,1.54h.54l1.2,1.47,2.55-.32.24.79,1.85.58.28,1,1.31,1.1,1.79-.48,2,.88.48-.46,1.7.11.31.53.59-.47-.46,1-.7.23-.3-.35-.79.59.63.61-.63.81-.35,1.9,1.9,1.69.68-.43,1.65,1.07.7,2.2,2.27.07.81,1.66-.2.55-.91,0,.35,1.14,1.71.66-.31,1.61,1.19.68v.95l-1.45.06-.09-.33,0,.58-.21.55h-.5l-.19,0-.93-.09-1.5-.4-.11-.63-1.15-.3-.26-.52h-1l-.68-1-1.29.39-.11.49-1.68-1L379.76,353l-3.61-.88-1.44-1.78-.35,1-1.1.47-.33,1,1.15.71.27,1.11-.6.83.58.2-.25.43.73.09-1.54,1.41,1.19,1.31-.55,1.71-1.21,2-.64.32-.14.86-3-.52.57-2h.9l-.6-.76-2.53,1.39-.77-.93-1.12.36-1.08-.27-3-1.62-.65.09-.11.78-.73-.12-.48.4L357.8,363l-.42-1-.8-.56,0,.45-.32-.5-.76.09-.49-.74-1.08-.26-.87.7-.47-.11.91-.61,1-3.61.92-.41V356h-.55l.1-.61-.39-.17-.24-2.92-2.26.89-.16-.27-1.12.74-.36-.57-.92.38-.52-.46-1.15.11-.18.62-4.55-.12-1.05.31,0,.5-.62.11-.46.68-2.86.26-.89-.82-1.1,0-.87-.65-.37-1.58-2.77-1.12.05-1.1,1.58-1.51,1.45.05,1.48-.78.1-1.5.61-.62H338l.92-2.17.85-.12.4-1.67-.39-.83-1.92.32-.15-.63-1.14.28L336,340l-.88,1.36-.39-2.66-2-1.29.77-4.34-.57-1-.77.48-.85-.64.08-1.69,1.11-2-.33-2-1.45.22-.05,1.35-3.36-.83L326.06,325l.31-1.64-.71-1.5-2.81-1,.31-.49-.7-.31-.75-3-1.24-.33-.46-.94-2.14-.4,1.64-3.75-.54-1.12,1.58-1.14-.45-.89-.62-.12-.39-1.07.24-1Z" transform="translate(-0.72 -0.75)"/><path id="IN-JK" class="cls-1" d="M140.8,2.19l1.2,1.4,2.38-.1,1.7-.1,1.49-1.2,1.59-.59,1.59.79,1.69,2.49,2,2.89,2.59,3L158.15,13l3.38,2.19,3.28,1.59,2.79,2.59,3.28,1.09,2.59,2.69,1.59,1.39,2.69.3L180,27.31l.1,1.79-.5,1.49.7,1.9,1.19,1.79,2.69.79h3.28l3.68,1.1,2.19,2,.9,2.58,1,1.79,3.49.4,4-1.83,3.46-.85H209l2-3.19,2.29-2,2.69-.6,2.19-.89,2-1.49,3.48-.3,2.89.89,1.79,1,1.19-.7V30.4l1.1-1.3,1.79-.5,2.49,2,1.29,1.5,1.59.4,3.09.69,2.39.7,2-.9,1.39-.49,1.29,2.08,1.2,2,1.69.9L252.91,39l.6,1.59-.5,1.7.3,1.79-.1,1.29-.9,1.69-.1,1.2-1,1.39-.2,1.49.1,2.59-.8,2-.8,1.89L248.93,59l-.4,2.19-1.49.8-1.64.72-2.08,1v2l-.8,1.29-1.89-.1-2.09.1-1,.9.2,1.1.9,1.59.51,2.08-.87,3.73-2.05,2.24-1.25.5-2-.5-2.24-.74-1.37.62-2,.37-1.18.37-.5,1.19.44,1.74.75,1.55.87,1.43,1.37,2.24-.38,1.37-1,.93-1.5.62L226,91.63l.19,1.62-.48.72,3.09,2.84.18,1.67,2.31.93,4.7.31.12.78-1.27,2.91-.05,1.28,2,2.23.47,2.14,1.3,1.07.65,2.2-.4,1.57-2,.53-2.85,2.45-1.12-.9-1.16.31-1.6,1.15-.47,2.28-1.15-.29-1.51,1-1.31-.6-2.79-2.67-.37-2.29.35-.75-.72-2.42-1.92,1.16-.6,1-1.69-.13-1.24,1-.69-.16-.85.58,0,1.1-.59-.45-1.51,1.33-.67-.79.44-.53-.06-1.19,1.93-1.13L214,112.3l.17-2.22-1.75.59.16.62-1.73,1.08-1.26-.24L209,113l-.59-.49-.59.93-.66-.28,0,1.08-1.11.14-1.66-2.64.25-1.81-.72-.23-.7-1.31-1.8-.9.6-1-1.63-1.65-1-.35-.25.66-1.46.39-1.34,1.4-.74,0-.61.61-1.42-.59-.65,1.5-.6.13-.47-.85-1-.55-.41.28-.22-.76-1.14-.88-.58.43-.2-1.66-1.29.18-.83-.65-.77.25-1.7-1.1-.84-2-.69,0-.85-1.08.52-2.26-.54.24-.51-.47-.48.15-.53,1.75-2.16.42L176.75,99,176,99l-1.64.74-1.62-.17-2.45,2-.78,1.78-3,.69-.24.89L163.43,107l-1.64-1.12h-1.24l-.28,1.48,1.66,1.4.81,1.4-.34,1.64L163,113l-1.07,1.67-1.43,2.21-1.22.26-.72,1.44-3.82,1.71-.58,1.79-.23-.84-.47-.18.09-.56-1.2.39-1.94-.32-2.65-1.68-.15-.47-1,.24-1.19-1.61-1-.3-1.2,1.1-3-1.2-2.87.28-1.18-3.12.72-1.16-.55-1.5,1-3-1.15.42-.58,1.61-1.73.42-1.19.74-2.88-.3-1.4-1-2.09-1-1.59-1.5-2.49-.89-2.09-1.49h-3.18l-.7-1.5-1.09-1-1.39-1.2.59-2.48-.89-1.79-.3-3.09,1.09-1.29-.79-3.19.49-1.19L114,87l-1.49-1.5.1-1.39,1-1.19-.8-3.09-1.49-1.49.1-2.89-.3-2.33-1-2.48.4-2.49V66.42l1.29-1.4,2.19-.59,1.69-.7.1-1.89,1.3-2.29,1.39-.2,3.38-.1,1.2-.89.8-3,.89-1.89v-2L123,49.7l-2.49-1.1-2-.59-1.19-.9-.7-1.49L117,44l1.39-.9.6-1.19-1-2.19-2.09.1-2.38-.3-2-.6-3.49-.3-1.89-1.73-.89-1.79-.7-2.59-2.69-1.29-3.08-.7-2,1.3-2.19.1-.8-1.2-.1-2.19.5-1.09-.5-1.59.4-1.6,1-2.28,2.38-1.69L100,18.22l2.29-2.49,2.19-2.79.9-2.79,2-1.29,3.08.3,3.88.4,4.38.2,2.09-.5-1.89-2.09-1.67-.92.83-1.19,2-.28,1.79,1.59,2.59.6,1.3-1.59,1.79-.4,1.69-.8,1.39-.69,2.19-1.1,1.49-1.19,2.19-.2,1.69.3Z" transform="translate(-0.72 -0.75)"/><path id="IN-KA" class="cls-1" d="M125.34,502.7l-.62-.44.78-.17-.07-.85,1.55-.77.48-.7.47,1,.89,0,1.52-.75.51-1.52-.94-.17.62-.86.4.87.38,0-.41-1.05,1.64-3-.71-.35-1,.47-.46-.39,1.4-1.25,1.14.51-.07-1.3.57-.89-.21-.93-1.69-.57,0-.5-1.43-.24-.4.51.31-.51-.54-.72,0-1.18.37-.25.39.57.16-.64-.56-.14-.08-1.12-.89-.15.08-.94-.66.57-.32-.41.68-.18-.19-.9.78.93.33-1.12.75-.08-.06.4.57.24.29-1.11,1.44-.56.1-1.22.44.74,1.11-.14.48,1.76,1.3-.51.14-.68,1,0-.62-.71.74-.82,0-.87,3.28-1.21,1.44,0-.25-1.87,1.09-.48.07-.6-.84-.44.24-.33h1.92l0,.34,1.23-.5,1.06,1.64h1l-.14.68.68,0,1.41-.74.12-1.75,1.19.05,1-.52.76.28.77-.47.52.92,1.62-.45.12-1,.71.1,0,.73.72.4.62-.2,0-1.64-.6,0,.73-.57v-.68l-1.06-1.66.72-.83-.05-1.15-1.13-.92.15-.85-.59-.16-.13-.72.78-.2.41-1.86.88.42.28,1,1-.2,1.37,1.13.47-1.15.78.81.53-.69.13,1.39.79.64,2.58-.66.51.53.88-.79.88.56.27,1-.08-1.13,1.51-.56.66,1,1.42-.42.18.86.62,0,.55-1.25-1-.13.24-1.29-.83,0-.06-.79.93-.54-.66,0,.47-.61-.55-.44-.17-1.14,1.76-.21.27-.88,1.27-.35-.06-1.15.78,0v-1l1,0v1.27l.86-1.45,1,1.76.57.17.16-1,.62-.23-.25-1,1-.11.54-.86-1.07-.67.07-.89,1.3.65,2.38-1,0-2.58.77-.14-.16-.75.44-.51-1-.42.66-1.5.7-.08.76.57.19-.47.52.69h1.07l-.28-.92,1.14-.48.43-1.4.75.06-.23-.76,1-1.27-.1-.84,1.61-1,.52.52.58-.38v1l.84.26L193,444.82l1.62.09.61,1,.94-.4,0-.62.85.34,1.11.29-.81,1.7.7,1.06.06,1.15-1.15,1,1,.95,1.13.37.15.53-.2.5-.42-.25-.15,1.2-.66-.12.24.83-.5-.06-.48,1.2-.5-.19-.32.56-.13.41,1.29.4-.09.37-2.33,1.22-.22,2.4,1,.33.24.55.54-.7.44.52.87-.29,0,.65,2,.59,0,.72-.75-.18.09-.48-.26.59-.61.13v.57l-.78-.22v.53l-1.31.06.53.5-.16.7-.6.39-1-.36-.37,1.8.43.26-1.55,1.23.39.24-.81,1,2.14,1.26.77,2.1-1,2.14.37,2.82-.7-.08-.3,1.49.91.05,0,.73-1,.34.34.55.76-.2-.1,1.36-1.53.41.5,1-.75.15-.27.58-1.46-.16-.1.39-1.19.12,1,1.41,1.22.5,1.44.37,1.73-.28,2,.83,0,1.1-.53-.24-.65.76-.69-.11-.28.39,0,.55.46,0-.57,1.41.07.92.47.27-.39,1.58.41.61,0,1.76-5.45-.8-2.21.37-1.62.9-.92,1.46.88.19-.44,1.91,1.71,1.63-.18.74-.73-.6-1.09.41-.06,2.89-1.14-.14,0,.33,1.19,1.21.72,2.44,1-.12.12.81.68.09.34.58-.9.81.78.59v1l-.54.14.46.47-1.57,2.6-.8-.12.13-.51h-1l-.4.42-2.2-.4-1.67-1.34-.47.42.22,1.18-.44,1,1.34.4.77-.28-.33,3.45-1.43.53.37,1-.8,2.85.83,1.6.58.1.9,1.17,2.16-.21-.62.72,0,1-.59-.31-.63.5-.09.94,1.49,1.13-.53.47.27.69h2.34l.54.65.63-.09.14-1.59.84-1.08,1.67.57,1-.43,0,1.18,1.66.15-.08.84.6.82.67-.43-.86-1.79.23-.63,1.18.32.26.81h.87L196,535l-2.32-.31-.27.77-.61.11-.06.61.94-.49.12.33-1.45,1.72,1.2.34-.16.82h1.15l-.48.7.41.57-.74.63,0-.38-.88,0,.11-1.84-.84-.91-3.48.72-.55-1.09-2-.24-.32-1,.24-1.6-1.64-.35-.09.5-1,.15-.16.6.91.08,1,1.33-.92.91,2.2,2.08.11.6-.5.09-1,1.69.5,1.54.4.21.31-.83.71.7.73-.47,1.5.13-.1-1.41-.8-.62.81-.16-.14-.92.44-.37,0,1.23.55-.46.14.43.46-.72.35,1.19,1.18-.38.28.67.82-.43,1.36.23-.33.77,1,.05-.16,2.59.7-.08.09-.58.52.45.16-1.25.76.59.83-.58.53.35.33-.17-.55-.43.81-.44.44,0-.14.54.67-.19.27.61.09-1.23,1.37-.48,0-.5,1.08-.52-.44-1,.25-.57,1.44.08.51.73,1.15-1.14.24,1.22-.74.28,0,1.3h.44l.41-.89,1.1.19.07-.73,1.52,1,.1,1.36-.7.94.51.49-.08.56-.87-.08-.12.45.47.68,1.57-.29.1.54.7.16-.22,1.28.93-.66,3.41.19-.74,4.77.88.49-.64.26.51.35.7-.33.24.44.75-.2,1,1.12.73-.94.46.8-.18,1.24-.58.36.58.66-1.26.78.4.48-.54.33.05.62-1.11.45.14,1.46-.74-.11.27,1.45-1.2.11-.69-.7-.88,1.73h-1.3l-.43,2-2.09-.38L207.41,563l-.67-.07-.28,1.07H206l-.75-1.15-.43.76-.33-.17.53-.73-.35-.48-2.78.95.3,1-1.42,2.62-.58-.2-.53.52-.51-.53-1.34.35.16.78-.58,1.34.18,1.09.58.15-.65.67,1-.19-.1,1.47-.34,1.16-1.28,1.49-1.52.47-.1,1.27,5.46.74.88,1.31-1.65,2-.61,1.52-3.68.13-.16,1.2-.51-.27.08,1.05-.78,1.88-1.25-.6-.7.42-.86-.83-.9-.09-.31.4-2.6.43.13,1.07-.79-.26-.31-1.1-.72.26.2-.41-.57-.4-.67,0-.27.76-1.26-.38-1.49,3,.47.9-.28.58-.44-.48-1.47-.29h-3.89l-.42-1.28-.75-.58-1.11.91-.58-.09-.57-.89.47-.34-.23-.77-1.53.48-1.31-1.55-1.12.08-.73-1.36-1.59.27v-2.54l-2.37,1-2.47-.37-1.09-.93-.52-1.84-1.73.19-.32-.81-.82.19-.58-1.09-1.21-.18-2-2.88H152.4l0-1.71-1.17-.85,0-1,1.17-.18-.16-.78-1.55.86-.12-.73-1.13-.59-.09-1,1.07-.45-1.07-.56-1.13,1-.44-1.33-.89.17-.34-.35.16-.91-1.35-.46-.06.67-.74.13,0-1.16-.89.12.1-.29-.57-.15.5-.65-.34-.64-2.62.76-1-2.08-2.63-10.58-.51-6.12-1.34-5-.77-1.71-.81-.39-.63-1.24-.64-3.45-.61-.87-1.84-6,.83-.61-.6-.48-.18.68-1,0-.32-1.74-.52-.54.32-.29-.39-1.61-.66-.71-.63.65-2.29-1.74.59-.13.16-.89H125l-.31-1.06.88-.53.75.25-.06-.91.83.64,1.22-1-.18-.52.85-1.06-.5-1.21.24-1,.67-.88-.32-.84-1-.75,1.76-.76-.28-1.6-1-.46v-1.18l-.55-1,.65-.79-.69-.86.3-.94-.28-1-.5-.26-.38.38-.49-.69-.35.62Z" transform="translate(-0.72 -0.75)"/><path id="IN-KL" class="cls-2" d="M140.85,564.84l2.62-.76.34.64-.49.65.57.15-.11.29.89-.12,0,1.17.74-.14.07-.67,1.35.46-.16.92.34.34.88-.17.45,1.33,1.13-1,1.07.56-1.07.45.09,1,1.12.59.13.73,1.54-.86.17.78-1.17.18,0,1,1.17.85-.05,1.72h1.33l2,2.88,1.22.18.57,1.09.82-.19.32.81,1.73-.19.52,1.84,1.1.93,2.46.37,2.38-1v2.54l1.59-.27.72,1.36,1.12-.07,1.32,1.54,1.52-.48.24.77-.48.34.57.89,0,.77h-.94l-.62.85-1.1.39-.56-.61-1,.61.3,2.22.8-.31.89.63.27-.3,1.61.53.79,1.11,1.28.74.6-.11,0,1.26-2,1.31.13,1.07.73-.48,2.84.36,1.54-1,.6.48-.72,1.37,1,.49,0,1.56,1.15.11-1.79.23-1.21,2.27,3.53,1.32.48,1.15,1,.17.19.61-.87,2,.35,1-1.41.07.51.87-.46,3.6.67,1.17-.42,1.36.4.37.54-.26,0,.49.9.89,1.37.34,1.41-.84.28-.78,2.33-1.29,1.24.13-.16.73.75,1.1-.08.7.71.28-.43,1.86-1.51.56,1.26,1.53.23,1.41-.51.23-.74,1.62.51.36-.31.72.53.55-.51.18,0,1.23-.39.13-.79,2.31.92,0,1.24.83,1-.59.43.63.33-.67.21,1.45.95.62-.37,1-.92.41-.48,2.18h-.57l-.36.77V640l-.64.62.32.76-1.17,1.15-.29,1.1-1,.52,1,1.36v.66l.51,0,.8,1.22-.6,1.76-.79.86-.45-.06,2.3,4.21-.37.76-1.28.17.48,1.17-1.56,1.24.52,1.39-.79-.22-.53.52L185,657.31l-7.18-9.49L176,646.43l-.58-2.44-3.78-8.38L169.53,624l.34-.09.89,1.68,1.35,1.45v2.55l.61.43-.69,3.27.55.39v-.41l2.48-.11-1.8-.73.3-1-.19-.82-.39.06.24-1-.66-.14-.11-3.41-.78-1.15-.34.11.25.64-.35-.1-1.45-3,.31-1-1.23-1.43.79,3.51-.4.08-2.62-8.53-4-8.71-1.09-4.79L159,594.65l-1.11-2-1.37-.61L155,587.67l-2.88-3.32-1-.46-1.87-3.11-.74-.38-.61.39-.41-1.9-4.36-8.6Z" transform="translate(-0.72 -0.75)"/><path id="IN-LD" class="cls-3" d="M103.28,659l0,.47-.37.4h-.37l-.27-.1v-.13l.11.1.36,0,.31-.18Zm12.19-37.85-.07.91-.13.09-.13-.32.11,0,.09-.13Zm-27.7-.67.08.24-.12,0Zm27.9-.42.09.3-.07.25Zm-21.33-8.91.15.11v.22l-.71.45ZM116,606l0,.08.53.06-.62.22-.23-.09V606Zm-31.52,0,.34-.62.11-.46.13-.14h.12ZM87,603.32l-.07,0,.06.16h-.14l0-.2Zm.74-.15-.28.21,0-.11Zm8.47-3.88,0,.17-.26.37-.11-.13,0-.18Zm-13.15-1.68,0,.06-.08,0Zm14.38-.94-.25.9-.35.79.35-1.29Zm4.39-5,.19.22.06.34-.09.08-.12-.51-.1-.08Zm-17-2.2.06.11-.09,0Zm11-2.23.05.3-.24.25Z" transform="translate(-0.72 -0.75)"/><path id="IN-MH" class="cls-1" d="M125.76,364.05l1.14.64,1.87-.23.25-.71,1.1-.26.71-.92,1.21-.15.05,1.25.94.37.71,1-.5,2.27.16,1.81.86.18.14.82,4.86,1.6,2.32-.44,3.26,1.46,1.2,2.36,2.2,1.08,1.67-.1,0,.59,1.25-.31.77.45,1.47-.25,1.67.48,1.27-.5,1.35.33,4.49-.43,1.69.12,1.75.93,1-.48,1.27,2.56-.31.47.59,1.12-.12.39-1.11.13,1.23,1.79,1.87-.23.41.44,2,0,1.6-.83.73-1.82,2.85.08.78-2-.76-1.17L181,375l.16-.52-.6-.74.52-.39.16-1.28.8.1.39-.49,1,.31,3.58-2.73,1.79.21.29-.31.75.75.36-.54,1.23-.14.06-.86,4-.2,1.4,1.58.61,1.66v1.44l.76.44-.84.29-2.29-.6-.85.53.45,1.35.64.35.38,1.77,2,.3.43-.06-.07-.59h1l.34.49.5-.57.29.85.6-.13.34-.47.91-.11.12-.48L204,377l1.19-.2,4.83-2.5.24-1.34,1.85-.27-.07-.53.8.51.68-.43.51.28.39-.91.9.38.15,2.24,1.65-.6,1.21.29.39.64,2.82.5.56-.65.54.59.26-.49,2,.1.33-.35.76.29.18-.59-.76-.92.49-.12-.3-.72,1.7-.59.31.39,1.65.05,1.25-1.37,1.51.21.18-1.63,2.52,1,1,.09.44-.38,1.52.39,1,2.91,2.32-.29,1.78-1,2.6,1.61,1.23.14L247,373l1.2.49,1.47-.44,1.07-1.17,1.54-.61,1.5.31,2.31,2.22.86,1.85-.47.69.3.69.78.1.16-.68.78.11,2.25,1.63L262,378l.34.73-.78,1.07-3.73,1.73-.5,1.69.29,1.35-.49.6.66,1.73,1.81,0,.08,3.75.72,1.82-1.52.65-.54.83.63.71,1.16-.6,1.15.18-.76,4.63.67,1.38-1.59.59-.65.83-2.68.62.65,1.14-.58.61.16.41,2.18.12.89.64.12,1v1.74l-.53,1.25-.83.06-.77-.55-.79.45,0,.59,1.57.15.31.67-1.38,1.29-.71-.13-.06.48,1.21,0,.54.45-.19-1.16,1.53.12,0,1,2.64,1.82-.19,1.77,1.34.08.95.89,1.28.12.37.74.71.23.27,1.18-2.18.85,1.2,1.46-2,1.63-1.27.07-.35-.94-1.29.42-.89-2.06-1.93,1.45-.81,1.63-1.12.48.07,1.11-1.29,1L255,428,253.9,430v1.28l1.69,2.31-1.5,1.3-.72.11.53.92-1.38.45-.27.48-.65-.45-1,.44-2.07-2-1.68-.39-.79-1,.94-.62-.09-3.58-.39-.56-1.18.28,0-1.53,1.79-1.47-.48-1.23.87-1.56.23-2.29-.69-1.4-2.34-1.6-.9-1.25-.94-.21-2.1.62-.88,1.58-.95-.36-.21-.63-1.51,1.12-2.12-1.62-1.15.12-.2-.54-1.27-.5-.15,1.9-.63.77.34.53-.94.16L229.52,418l-1.77-.26-.54-.49-.8.23.55-.74-.25-1.42L225.6,415l-1.19.26-.28-2.26-1.27-.45-1.43.27-2.36-1.13-1.62-.09-.68.63-.37-.51-1.65-.44-.28-1-1-.09-.35-.71-.53,1.45.94.23.6,1.29-.47,1.49-1.25.53-.33.59.86,1.3v.72l-.67.3.63,2.24-2.66,1,.32,1.76-.57,2.11-1.84-.41-.65.29-.11-.65-2-1.55-1.84.86,0,.4.92.37-.81.27-.43,1.28.24.36-.57,1,.36,1-.95-.27-.12,1.12-.74-.24-.09.74.21,1,1,0-.09.72.86-.06-.28.9.86.06,1.28,1.9-2.21.32L202,436.62l-.61-.5-.51.68.07,2.66-1.65.61-.18-.56-1.08.11.08,1.61-.52-.21-.63.45.81.39-1.24.4.62.21-.75,1.5,1,.69-.35.58-.85-.34,0,.62-.94.41-.61-1-1.62-.09,1.07-1.71-.84-.27v-1l-.57.38-.52-.51-1.62,1,.1.83-1,1.27.22.76-.74-.06-.44,1.41-1.14.47.28.93H186.7l-.52-.68-.18.46-.76-.57-.71.08-.66,1.51,1,.41-.45.52.16.74-.77.14,0,2.59-2.38,1-1.3-.65-.07.9,1.06.66-.53.86-1,.12.25,1-.61.24-.16,1-.58-.17-1-1.76-.86,1.45v-1.27l-1,0v.95l-.78,0,.06,1.15-1.26.36-.28.88-1.75.2.17,1.14.55.44-.48.61.66,0-.92.54.06.8.82,0-.23,1.29,1,.13-.55,1.25-.61,0-.18-.86-1.42.42-.66-1-1.5.56.07,1.13-.27-1-.87-.56-.89.79-.51-.53-2.58.66-.79-.64-.13-1.39-.53.69-.78-.81-.47,1.15-1.36-1.13-1,.2-.29-1-.88-.42-.41,1.86-.78.2.13.72.59.16-.15.85,1.13.92.05,1.15-.72.83,1.06,1.66v.68l-.73.57.6,0,0,1.64-.62.2-.72-.4,0-.73-.71-.1-.11,1-1.63.45-.52-.92-.77.47-.76-.28-1,.52-1.19-.05-.12,1.75-1.4.74-.69,0,.14-.68h-1l-1.06-1.64-1.23.5,0-.34h-1.92l-.24.33.84.44-.07.6-1.09.48.25,1.87-1.44,0-3.28,1.21,0,.87-.75.82.62.71-1,0-.14.68-1.3.51-.47-1.76-1.12.14-.43-.74-.11,1.22-1.44.56-.29,1.11-.57-.24.06-.4-.75.08-.32,1.12-.79-.93.19.9-.68.18.33.41.65-.57-.08.94.89.15.08,1.12.56.14-.16.64-.39-.57-.37.25,0,1.18.54.72-.31.51.41-.51,1.42.24,0,.5,1.69.57.21.93-.57.89.07,1.3-1.14-.51L130.41,494l.46.39,1-.47.71.35-1.64,3,.42,1.05-.38,0-.41-.87-.62.86.94.17-.51,1.52-1.52.75-.88,0-.48-1-.48.7-1.54.77.06.85-.78.17.62.44-2,1-.61-.15-.62-.71-.5-2.1-1.32-.17-.35-1-.68,1.29-3.2.29-.67-.46.55-.19L114.13,497l-1.69-.54-.56-2.13-.58-.4.26-.37-.67-2.76-1-3.53-.44,0,.78-.9-.83.17v-.92l-1-1.6,0-.93.52-.22-.54-.75.48-.81-.37-.07-.23-3.59-.71-1.86.36-2h-.49l.27-.56-.62-.33.92-1.11-.68-.75-.89-3.35-.71-.71.69-.08.11.46.35-.56-.78-1.67-.83-.46.8-.74-.41-.06,0-1.39-1-1.09.65-.59-.86-1.19-.28-1.25.45-.48-1-2-.26-1.93-.26.13-.71-1.17.18-.88-1-1.55.27-.45-.67-1.23.35-1.38-1.19-.56.1-1.34.61,0,.35.84,1.83.43-.28.77.68.78-.16-1.75-.54-.85-1.29-.07-.88-1.38-.77-.4.25-.7-.64-1.89.69-1.52-1.54-3.4L99,434l1,.26.51-.78.63.84.25-.43.13-1.24-1.3.33-.39-1.13,1-.14-.38-.84.34-.6.49.25,1.11-.8-.61-.06-.21-1.26-.64,0-.15.67-1,.8-1-.26-.37,1.73-.77.74.33-1.12-.66-.2.48-1.68.25.19.24-.46-.46-.07.22-1.13-1-1.59,0-2.49.44-1.15-.87-1-.27-1.91.74-.63.13-.77-.45.48-1-.76-.12-1.26.53-.05-1.06-4.34-.76-1,0-.42.61-.15-.35-1.49,1.09-.88L95.65,406l.63-1.46,1.34.25v-.52l.7.09v-.92l.83-.88,2,.29.34.91-.28.9.33.39.59-.48-.15.54.89,1,.17-.69,1.65.32,1,.7.63-1.53,1.53-.61.46-1.28.87.19.31-.33.14.46,1.17-.3-.14-3.23L110,399l.8-.54,1.49-2.79-.4-.07,0-.9-.85-.25-.78-1.06.77-.49.29-1,.61-.15.33,1.42.84-.46,1.44.84.61,1.27.71.37.64-.35,1,.24,1.88-1.07.15-1.14-.47-.6h.85l.46-.79.74.14.6-.42-.09-2.17-1-2.23.24-1-1.89-.29-.18-.59-.69.27-.68-1,.22-1.3-1.94.13-1.5-1.33.52-.19.49,1L116,382l1.15.31.11-.65,1.69-.1.2-2.13,1.26.11,1.18-.79.09-2.34.33.23,1.67-.61.39-1.4.88.76.42-.35,2,.1.13-.46.43.38,1.64-.74,0-1-.48-.54-.75.66-.67-.32-.62.42-.46-.64h-2.44l-4.37,1.42L119,372l-.78-.6,2.06-.45.22-1.24-1.36-1.4.28-.62-.72-.73Z" transform="translate(-0.72 -0.75)"/><path id="IN-ML" class="cls-1" d="M454.92,282.39l3.08-1.34L455.39,278l.85-.22.46-.69-.22-1.16,1.33-.52.28-.43-.36-.3,2.39-1.92,1.34.39,3-.69.85-.83.66-.09.68.58,1-.61,1.19,1.33-.46,1.43,1.47-1.47,1,.52-.47.58.38.31L472,273l1.28-.15-.14,1,.78.16.67-1,.56.32,1-.31.76.89-.07-.7.56-.1.52,1.4,1.29,0-.6,1.52,1-.61.61-.09-.6.55.28.2,2.79-.9-.35,1.91.26,1.09.67.14,1.08-.55,1.21-2.12,1.79-.37.53.32,1.7-.74.09-.39-.46.52-.69-.09,1.18-1.22-.62.07,1.55-2.6,1.18.25.12,1.33-.56.58,1.22.8,1.06-1.13.24-2.43,1.84-1.38,1.18.48-.12,1.06,1.09,1.22,1.45-1,1.29.19,1.68-.3.94-.78,1.32.39,1.18-.39-3,3.12.16.76,1.29.11-1,.85-.56,1.33.16,3.26,1.43-1,2.18-.2,1.08-.66,1,.51,0,.94.7.19.76,1.38,1.16.25.32,1.19.63.07,1.06-.8-.18,1.26-1.62,1.62.64-.1.23,1.27,1-.43.12.57.29-.15.92,1,.4-.15.49,1.06.5.07.17,1.09-.58.82.83.69-2.88,1-.94,1.37-2-.51.39.93-1.23-.2-.44,1.63-.78.12-1.65-.46v-.6l-2.39-.43-3.48-2.14-6,.5-.61-.27-.19.66-.76-.17-1.32.82-.81-.53.24-.69-3,1-1.13-.83-1.63-.06-1.43-.73-4,.15-4.52,1-1.7-.64-1,.67-1-.39-3.69-.08-1.34.7-2.33-1.12-4.73-.77L457,288l-2.86.16.27-.33-.54-1.73.7-2.09.52-.29Z" transform="translate(-0.72 -0.75)"/><path id="IN-MN" class="cls-1" d="M530.36,287.8l.06.7.71.08-.12.72,1-.15,1.11,1.12,1.78-3.67h.53l1.9-2.4-.1-.77-.8,0,.1-.93,2.54-.65,1.53.27,1-.34.09-.57,1.49.84.13.62,1,.21.45-.73.73.07.42,1.2,1.5-.26.56.39,2.24-1.11.2-1.15.92-.67.66.11,1.41-1.87.48.15-.41,1.08.4,0-.83,1.33,0,1.69,1.58,1.09,1,.13-.18,1-.89.66-1,3.95,3.36,1.83-.07,2.55-.82,1.08.33.83-1.7,2.29-.56,2.76-1.26.13-.41,1.93-1.38,1.3-.75,1.88-.55.12,0,1.53-.81.49.37.46-1.19.93,0,1.06L546.87,314l-.37,2.81-1,2.43-.53.06-.19,1.87-.81.23-.56-1.15-3-1.29-1-.16-1.9.62-1.24-1.81-2.85-.11-.36,1-.84-.46-1,1-1-.6-1.12-2.4-1.29-.42-.41.17.07.84-1,0-.69.63.24-.83-.39-.57-.51,0-.15.77-1-.11-.46-.76-1,1-.45-1.32-.54.28-1.62-.56,1-2.17-.29-1.61.73-1.43-.45-.08.06-1-.5-.29.81-.18-.08-2L522,305l-.25-.32,1-.2-.66-.29.62-1.81-.61-.8.66-.72.05-1.56.27-.23.64.69.93-.49v-1l.67-.48.51-1-.28-.46.47-.29-.29-1.55.41-.71.76,0,.65-1.1,1.11-3.45Z" transform="translate(-0.72 -0.75)"/><path id="IN-MP" class="cls-1" d="M210.83,252.41l1.07.35.44-1,1.45-.24.8,1.15.76-.17.52.8,2.41.94,1.95-.27,1.18-.72.16.48.38-.3.53.65.94,0,1.12,1.42.82-.21.92.39-.21.79,1.16-.51.26,1.73-.55.85.25-.19.13.72h.48l.84,1.12-.26,1.1,1.64.26-.2.65-.64,0-.2,1.28,1.19.42-.38.22.23.45-.69.09-.21.92-.35-.35-.63.48.42.79-.77,0-.11.85-.79.05.49.94-1.21.36,1.26,1.33-1.23,1-.31,2-1.11.78.13,1.05-.75.23.32,1.42-1.06-.72-.26.28.49.06,0,.37-1.54,1.16,1.35,1.73-.13,1.15-2.68.7-.6.66-.83-.54-.58.57-2-.41-.65.7-.54-.28-.43.72.25,1.27-.91.68-.62-.15-.36,1.24-.73.6.75.88-.49.59.78.3.2,1.2.9.65-.26.52,1.28.6-.59.36.52.56-1,0-1.42,1v2l-3.39,2.71,0,.57.95,1,.24,1.51,1,1.84-.2,2.5-.82.81,1.05,1.06-.06.66,2,1.41-.73,1.28,1.12,1.24,1.16-.51,1.47-2.2,1.53.84,1.9,2.56.62.25.7-.45.29.33.3-.43.66,1.78.45-.68,1.37-.3.61-1.78,1.23-1.2.37-2-1.59-.58.11-.78.36.37.74-.28-1.77-3.27-2.19,1.07-.58-.28-.19-1.26.67-1-.16-2.08.33-.46-.33-1.06-2-.94-.31-1-.66-.48.41-2.22-.94-.83-.59-3.7-1.51-.81-.89.53-.56-.41.28-.36.55.26.53-.71.17.45.52-.06.34-.46-.34-.84,1.07.26-.32-1,.57.08.32-.57.52.24.51-.86.69-.09.33.44-.68.57-.26-.37,0,.74,1.07.21.09.6,1.06-.13-.44-1.25,1.46-.41-1.21-.08-.64-.68.15-.86.52.57,1.54.24.33.26-.67.18.43.32.48-.8-.61-1,1-.32,0-.76.75,0,.14.41.29-.42.23.66-.53.24.4.94-.68.76.54.43.65-.24.39,1.44-1,.56-.75-.54.81,0,.38-.53-1.56.29-.78.81.12.46-1.08.4-.18.4.6-.05-.13.66.75,1,.73-2.66,1.07.3.53-.42.36,1.49-.62.51-.67-.26-.35.66-.33-.24-.09,2.07,1.61-1.25,1,.56,0-.87-.5-.26.71-.73.15.66.93.52-.67.9-.06,1,.45.12.86-1.25.76.65-.27.47.45.76,1.05-.16-.26-.57.38-.2.45.86.67-.06.1-.56-.61-.17.45-.3.49.18,0,.72.9-.26.24-.43-.75-1-.1-1.17,1.23,1.09.3-.31-.37-.36.23-1-.63.25-.47-.65-.59.43v-.89l.73-.69,1.07.16-.32.9.47.66.3-.66,1,.8.88-.56.69.31-.65,0-.67,1,.32.29-.69.08-.54.89.32,1.31.34-.59.33.72.78-.61-.16.87.61.31,1.59-2.18.5.7.28-.17-.11.53,3.1-.28,2.31,1-.18-.8.51-.39-.52-2.07,1.16-.38.23.54.61-.89,1.13.08.51-1.72,1.3-.29.84.4,1.35-1,.13-.75,1.07.26.23-.55,1.15.95-.14,2.27,1.54,1.18.44-.12.52,1.58-1.52.67-1.76,2.64,1,.62.88-.52.49.37-.34-1.1,1.57-.56.61.86.51,0,.12-1-.5-.29.7,0,.71.77.4-.55.92.45-.25-1.91.79.73-.65.44,1.15.68.48-.16-.12.63,1.12-.41,1,.24V293l-1.07-.32v-.57l-.53-.33,2.09-.21.59.83.18-1.9.87-.06.56.81-.83.84.12,1.21-.92.73.45.95-1.22.6.25.63.69.23,1-.33.32.21-.06-.39.83-.36.39,1.07,1.29-.15-.16-.51,1.4.05,1.18,1.38.6-1.52.79.54-.3.13.58-.12-.22-1.41,1.25-1.67-.33-.85.49-1.43.78,0,.17,1.14,0-1.09.35-.2,1.28,1.13.82-.24.17.54-.78.06,1.73.75.5-.73-.73-.7.48-.35.61.2-.32-1,1.19-.19.32.63.78.19-.56.54.19.83.32-.51.32.44-.79.54.22.44,1.13-.44.49.83,1.06-.11,1.19.88.84-.21,1.18.61.26-.39.29,1.81-.33.88,1.31,1.42,1-.46,2.25,1.34h1l.76-.74-.35.46.63.53-.42,0-.34,1,.85.25-.3-.53h.49l0-.35.37.29.11-.49-.29,2.43.48.08.22-.46.69.37-.05,1.29.75-.23,1.66.6-.15-2,.64-.52.34.65H301l.23.61,2.69-1.11.8.56,0,.72,1.42,0-.06,1h.76l.09,1.08-1.14.26-.71-.34.07,1,.44.31L305,309l1.12.28.07,1.84-.29,1.29-.48.29-.14,1.92-1-.44-.28.54L305,316l1.21.07-.51,1.28,1.16.37.22,1-1.25.93-1.92.33-.09,1.17-1.39.77-1.22,0,.36.68-.6.22-1.17-.61-2.76.17-1.53-.41-.61.34-.56-.57.1-.48-.87.75h-2.45l-.94-1-1,.23-.72-.46-1.33,1.11-1.47.29-1.33-.65.08-.43-1.29-1.51-1.06.42-.26,1.21.67.52.19,1.36.73.39.27.74-.92,1.39h-.63l-.22,1.38-.69.26.16.77.59.1,0,1,.45.37.55-.93.8.18.9-1,1.44.49.47.79,1.87-.48,1.25,2.71.83-.24,0,.81.65.22,1.11-.45.26.95.56-.13,1,.82.07.93-1,1.29.18,1.94-.74.86-1-.29-.9.83-1.8.05-.41.83.46,1.9-1.68,1-.08.55-1.82.39-.18.88.49,1.53-.79.91.34,1.42-.46.35-.37-.64-.33.6-1.06.4-.17,1.42-.52.11-.17.57-2,0-.82,1.05-.88,0,.21.6-.49-.27-.58.86-.38-1.44-1.17-.43-.39,1-.6-.4-1.19,1.07L273,352l-1.46,1.1.08,3.3-.61,1.08-1.37.39-.07,2.17-.95.41.69.39-.09.8-.75.07-.27-1.23-.83-.14L266,363.9l-.58.09.38.47-.1,2.94-.43,1.28-1.43-.23-.51,1-.19,2.8.44,2.57L262.05,378l-1.33.13-2.26-1.63-.77-.1-.17.67-.78-.1-.29-.69.46-.68-.85-1.85-2.31-2.23-1.51-.31-1.53.61L249.63,373l-1.46.45L247,373l-.43.73-1.23-.15-2.61-1.6-1.78,1-2.32.28-1-2.9-1.53-.39-.44.38-1-.1-2.52-1-.18,1.64-1.51-.22L229.21,372l-1.64-.05-.32-.38-1.7.59.31.71-.49.13.75.92-.18.59-.75-.3-.34.35-2-.09-.26.49-.54-.6-.56.65-2.82-.49-.39-.65-1.21-.28-1.64.59-.16-2.24-.9-.37-.39.9-.51-.27-.68.42-.79-.51.06.53-1.85.27-.24,1.35-4.83,2.49L204,377l-1.73-.78-.12.49-.91.11-.34.47-.6.12-.29-.85-.5.58-.34-.49h-1l.07.6-.42.05-2-.29-.38-1.77-.64-.36-.45-1.35.85-.52,2.29.6.84-.29-.76-.45v-1.44l-.61-1.66-1.4-1.57-4,.19-.06.86-1.23.15-.36.53-.75-.74-.29.31-1.79-.22L183.43,372l-1-.32-.39.49-.8-.1-.16,1.29-.52.39.6.73L181,375l-3.34,2.94.77,1.18-.79,2-2.85-.07-.73,1.81-1.59.83-2,0-.41-.43-1.87.22L167,381.72l1.11-.14.12-.39-.59-1.11.31-.47L166.63,377l-1,.48-1.75-.93-1.68-.12-4.5.43-1.35-.33-1.27.5-1.67-.48-1.47.25-.77-.45-1.25.31,0-.59-1.67.11-2.2-1.09-1.2-2.36-3.26-1.46-2.32.44-4.86-1.6-.14-.82-.86-.18-.16-1.8.5-2.28-.71-1-.94-.37-.05-1.25-1.21.15-.71.92-1.1.26-.26.71-1.86.23-1.14-.64.16-.73-1.17-.65,1.73-1.59-.54-.43-.51.18-.16-2.59-1-.21.33-.48-.68-.95.27-1.68.83-.25.47.88,1.19.23.33-1,.42.2.65-.93.76.12-.84-.87-1-.09-.29-.92-.08.76-.54.27-.35-.55-.44.81-.42-1.06-.53.05.16-1-.89.4-.17-.39.67-1,1.81.75,2.35-2.87,2.48,0,.4-2,1.59-2.88-.58-1.48-1.07.56-.8-.77-.43-.71.61-.35-1-1.87,1.43-1.11,2.53.52.7-1,1.31-.29,1.28-1.28,1,.15.63-.39v-.47l-1.06.22.57-.44-.44-.67-1.15.28-1.56-.93-.38.42-.74-1.05,1.1-1.11.07-1,.82-.88.87-.07,1-.89.69.07,1.07-1.08.38.32.89-.46,1.27-1.56.7-.17L141.7,325l.69-1.18-.73-3.17.33-1.4,1.5-2.15-2.34-4.19.51-.46-.24-.64-.51-.43-2.45-.05.64-.78.08-1.25,1.48-2.19-.83.13,0-.67-.79.18-1.41-.63.94-1-.18-1,.88-.32-.14-.59.7-.8-.87-.37.5-2.47,2,3.21,1.05-.12.4-.92.79-.18-.13-1h.56l-.28-1-1.88.2-1.23-.6-.2.47.15-1.39-.68-1.72.48-1.05.43.85.37-.29.59.49.15.84,2.58.75.27-.53,1.31-.16-.06-1.75,1-.6-.11-1.24,3.91.06.12.41-.68.43.39,1-.5,1.44-.79-1.75-.2.34.56.89-.66.77,1,.46.31-.4,2-.13-.14.66L150,299.2l-.56-.92-1.08-.13.48-.84-.56.13L148,297l-.14.59,1.06,1.08-.95.63-.44,1,.66,1,1-.23,3.86.9,2.73-.67.65.78,3.07-1.75,1.65.8-.24,1.34.45.42-.43.91.21.41.53-.4,1.13.95-.23.44.39.43-.71.55.43.39-.06.83-1.29.85-1.17-1.29-.89,1.07.13.44-.59.09.23,1.31.57.85,1,.17.32,1.3-1.11.59-.63,1.85h.68l.28.67,1,0,0,.82-1.14.31-.36,1.46-1.29.66-.66-1.47-.72.77-1.06.18-.36-.71-1.1-.59-1,1.55-.17,1.37,2.18,1.38.33.42-.43.36.56.58,1.45,0,.68.94.06-1.33h.64l.24-.89-.65-.43.09-.61,1,.32.57.82.36-.47,1.39-.48.38.25,2-1.1-.33-2.11,1.82-1.14,1.84-.45-.28-2.31.69-1.08-.24-1,.89-1,.43.47-.24.6.44,1.55,1.41,0,.92-.86,1.83,1.05.19-.44.62.23.35-.33,1.29,1.55,1-.4-.29-.46.66-.66-.19-.45.54.17.05-.47,1.6-.51.2.83-.59,1.26.56.5h1.13l1,1.18,1.15-.43.92.18.33-1.31.6-.4-1.47-1.48-.72-1.55.24-3-.77-1.49,1.08-.34.28.55.7-.42,0,1.28,1.06.61.76-.39.64-1.16.38,0,.3-1-.11-1.66-.68-1.57-1.15-.48-.42-.77-.89.43-1.3-.09-1-1.59.63-.47,2-.22.47-.53-.73-.34.14-.66-.62-.07-.77-2.08,2.92-1.6,1.75.5.78-.25,1.15-1,1.94-.13.85.82,2-.68-.16-1.72.57-.11-.24-.77-1.19-1,.46-1.12-.74-.12.53-2-1.18-.54-.47.3-1.31,1.15-.32,1.43-2.71-.65L186,288l-1.37.09-.36.5-1-1.08-1-.19-1.52.42-.07-.55-1.8-.21-1.64-1-.28-1-.52-.26-.92-2-.2-3.3-.69-.52.09-.53,1-.37,0-1.48,1.33-1.76.7.08.41-.88,1.83.15.61-.46-.14-.45,1.06-.26.71-1.35-.21-.43,1.2-1.47,2.06-.91,1-1.15,1.19-.21.68-1.09h1.65l1.82-1.35.94-1.43,2-.18-.1-1,2-.18,3-2.17,1,.09.63-.95,1.44-.22.15-1.05,1.24-.48.32-1,1.11-.06.93-.88,2,.46.07-1.28.56-.39-.34-1,1.6.13-.32-.83Z" transform="translate(-0.72 -0.75)"/><path id="IN-MZ" class="cls-1" d="M505.71,312.05l2.63,0,.3,2.3.93.25.1-.48,1-.34.4-1.57,1.27-.17.27-1.81,1.39-.5,1.56-3.8,1.33,3.27.72-.5.88.12.13-.42.51.4,1.36-.18.5.29-.06,1,.45.08-.73,1.43.29,1.61-1,2.17,1.62.56.54-.28.45,1.32,1-1,.46.76,1,.11.15-.77.51,0,.39.57-.24.83.69-.63,1,0-.06,1.51,1.34,1.29.14,3.84.82,1.8-1,5.66.36,1-1,.76.61,3-.44,1.67.42.27-2,3h-.93l-1.23-1.22-1.29.29-.08,1.05.82,1.85-.62.13-.47,2.19-.36.13.28,1.5-.43.79,1.1,2.49-.69,1.51.46.27.18,1.27,1,.81.37,3.74-1.28.33.47,1-.32.49-1.62-.72-.64.28.4,2.15h-1.1l-.08,2.65-.45,0-.67-1-.5.28-.44,1.6-.9-2.68-.49.05-2.65-2-.39.1-.31,2.93-1.57.92-.09-1.81-.73-1.61.36-.24.47.42.08-1.16-1.72-8.77v-2.11l-.42-1.82-.56-.31-.57-1.6-.21-1.63-.31.15-.24-.75-1-.34.38-2.79-.58-1.08-.1-3,1-.19-.75-1.74.15-.9-1.19-2.52-.48-3.44-.4-.11.29-1.42-.56-.82-.19-2,.58-.05-.26-.73.36-.51.59.13.23-1.05-.41-1.11.37-.66-.31-1,.47-2.55Z" transform="translate(-0.72 -0.75)"/><path id="IN-NL" class="cls-1" d="M566.4,247.58l.8,3.55-1,.61.51.33.14,1.22.62.26-.6,1.21.45,1.14-1.74,1.56v.9l-1.83,2.78.82.73,0,.67.64.31-.3,3.46.45.57-.52,1.05.06,1.37,1.36.69-1.66,2.6-1.46.76-.32.6-.12.86.77,2.53L561,279.5l-.38,1.34-.64.42.33.6-1.16.15-.77,1.5-2.73.82-1-.13L553,283.11l0-1.69.83-1.33-.4,0,.41-1.08-.48-.15L552,280.71l-.66-.11-.92.67-.2,1.15-2.24,1.11-.56-.39-1.5.26-.42-1.2-.73-.07-.45.73-1-.21-.13-.62-1.49-.84-.09.57-1,.34-1.53-.27-2.54.65-.1.93.8,0,.1.77-1.9,2.4h-.53l-1.78,3.67-1.11-1.12-1,.15.12-.72-.71-.08-.06-.7-.46-.8.55-.83-.35-1.26-1.38-.68-1.34-1.9,2-2,1.51-.58,1.54-2.41,2.76-2-.37-1.4,1.34-.63.45-.68.53,1.3-.39,1.47.33.73,1-1.11.84.39.7-1,1.33-.74-.52-2,.76-1.51.29-2.34,2.16-3.55,1.41-.42.23-2.7,1.89-2.29.27-.12.09,1.94.47.41.73-1.06,1-.55.18-1.91,1.14-.49.11-.8,1.62-1,.62.46.62-1.12.5.48,1.22-.33,2.42-1.71,1.76-3,.88-.46,1.2.79.75-.17,1.86-1Z" transform="translate(-0.72 -0.75)"/><path id="IN-OR" class="cls-2" d="M392.13,390.47l2.54,0,.19,1.23-1.41.11-1.86,1.33-.34-.48-.7.15.49.6-.94-.14,1-2.52Zm-60-39.16,2.77,1.12.37,1.58.87.65,1.1,0,.89.82,2.86-.26.46-.68.62-.11,0-.5,1.05-.31,4.55.11.18-.61,1.15-.11.52.46.92-.38.36.57,1.12-.74.16.27,2.26-.89.24,2.92.39.17-.1.61h.55v.53l-.91.41-1,3.6-.92.62.47.1.87-.69,1.08.25.49.74.77-.09.32.5,0-.44.8.56.42,1,1.45-2.4.48-.4.74.12.1-.78.65-.09,3,1.61,1.08.28,1.12-.36.77.93,2.53-1.39.6.76h-.9l-.57,2,3,.52.14-.86.64-.32,1.21-2,.55-1.71-1.19-1.31,1.54-1.41-.73-.09.25-.44-.58-.19.6-.83-.26-1.11-1.16-.71.33-1,1.1-.47.35-1,1.44,1.77,3.61.89,1.53,2.26,1.69,1,.1-.49,1.29-.39.68,1h1l.26.51,1.15.31.11.63,1.5.4-.15,1.62,1.57-.24.87,1.32,2.62.27,1.27.94.35,1.17-.77,1.84.68.94,1.35.11,0-1.07,1.35-.5.19-1,1.41.43.58,3.15,1.88.63.37.58,1.54,0v.71l.58.49-.25,1.4.49.81-2.14,1.41-3.75-.06-1.82.9-2.78,2.18-1.86,2.11-1.46,2.73,0,1.24,3.07,7.05-.26.83-1.6-.28-1.12.57-1.13,2.82,1,.12-.5-.58.67-.15.34.48,1.86-1.33,1.39.34.94-.31-5.46,3.86-1.15,2.91,1.06.29,0,1-2.11,1.83L385.49,403l-3,3.85-.48,1.31-1-.2L380,406.26l-.89.17-.23.58,1.22.06,1.45,1.56-14.67,4.75L361,416.32l-5.14,3.57-1.58,1.76L351.14,424l-1.86,1.89L348,428.11l-.87-.54-.53-.52.17-.69-.77-.13-.08.77-1.46,0,.59,1,.72-.1v.63l-.88,0-.52.92-.45-1.15-1.61,1-.37.88-1.18-.72.53,1-.52.64.29.53-.67.61-.68-.23.47.41-.76-.12.43.35-.2.36-.55-.35-.08,1.65-3.78.35-.6.61-.86.08L332.6,434l-1.82.12-1.46-.48-1.74-4.17-1,.66.84,1.55-.71-.23-.84-1.47.36-.59-.54-.1-1.55-3-.6.73.21.71-.54.84-.68-.53-.31,1.51-.75-.12,0-.35.42.05-.18-.88-.24.25L321,428l-.29.18.39,1.06-.07.46-.55,0,.15,1.19-1-1.11-1.3-.31-.86.45.49,1.6.35-.89.73.75-.71-.08,1.36,1.48-.32.63-.78,0-.06.7-1.6.23-.28.71-1-.19-.3,1.1-.07-.58-1.44-.67-1.72,2.6-.82.34-.08,1.11,1,0-.57.41.12.44,1.19.21-1.55,2.06.46.56.44-.23-.1,1.18-.76-.2-1.77.73-.86-.34-.15-1-.83.07-1-.65-.48.43.36.54-.55,1.4-2.27,1-.66,1.27-1-.91-.09-.81L303,444l-.23-.49-1.36-.46.39-1-.5.07-.15-1.53-.5.05-.52-.77-2.36,2.78.48.9-1.05,1.14,1.23.23-.44.71-.73.18-.09,1.1-.56.44,1.24,1.23-.16.32-.51-.38-.07,2.23-.51.06-.16-.53-.65.3v1.35l-.54.15-1.34-.68-.36-.72-2.84-.31-1.53,1.44L286,453l-.9.93-1.15.71-.31-.52-.53.17L282,455.66l-.89-.27-1.83.54-.45-.47-1.56.39.18-1.71.91.2.84-2.06-.07-1.28.73-1.4.29-1.42-.37-.58.48-1.65,1.37-.92,1.37-.22v-.62l1.81-.13.36-1.45,2-2.23.81-.33.25-.79.8.11.16-.6-1.38-.76-.07-.64,1.3.47.43-1.36,1.38-.61.94.14.06-1,1,0,.67-.73.24-2.29,1.4-.34-.31-2.29-.64-1,.37-.67-.26-.59-.83-.2.4-.72-.57-2.35.66-1.19-.89-.93.54-.09.35-1.14-1.34-.14-.57-1.9-1.46.18.5-.81-.18-3.65.47-1.75-1.67-.28-.41-1.31L287,409.64l-.26-.93.61-1.9,1.57-1.47,1.74,2,.7-.88,2.52,1.59,1.09-.44,2.28,3.72,1-1.15,1.12-.47,3.17.86-.47.93.29,1.13,1.27-1.2,1.2-.12.31-.88-.36-.5.15-2.15-1.59-.21-.7.31-4.34-1.63-.25-1.89.72-1.28-.17-1.35.5-.44-.74-1.16.74-2-.4-1.06-.46.46-.16-1.27-1.18-1,.92-1.56-.69-3,.24-2.79,1.15.47.29.81.91.05.56-1.77,1.41-.85,1.45-2.12-.27-.77.75-.68-.19-1.06,2.43-.23.77.45.49-.43,1.4.22,1.61-.59,1.77,1.26,1.66.4,1.47-.77.59-2.79,1.18-.56-.43-.6.33-1.4,2.19.78.59-.19-.19-1.14-.91-1-.33-1.15,1-2.63,1.26-.82.24,1,.67-.45-1.36-1.11,1.35-1.49-.35-.93.5-.71.95.46-.11-.85,1.11-.26-.27-.63.61-.88-1-.48-.38-.7.07-2.06,1.29-.23-.86-.86,1.82-2.72,1-.47,1.25.06,2.26-2.27,3-.53.78-2.18-1.37-.85.09-.45Z" transform="translate(-0.72 -0.75)"/><path id="IN-PB" class="cls-2" d="M161.9,114.67l-.45,1.69,1.7,2.25-1.85.93-2.25,2.6-2.38,1,0,1.22.87.5-1.74,2,.41.39,1.07-.27.84.38,2,1.65,2.31,1.09,1.61,3.32-1-.06,1.69,4.18,3.16,5.68-.39,1.28.66.49.13.85,2.58-.31V145l.86-.26-.44-1.2.91-.33.08-.63.34,1.23,1.44,2.08-.36.56.75-.67.45.9.54-.24.08.51.4-.53,0,.7.74-.6.65.71-.44.84.95-.26.2.34-.94.74,0,1.34.77.42-.56,1.38.23,1.2,2.14,1,1.2,1.39v.72l1.23,1.07.39,1-.39.7-.73-.07.06-.46-.56.21-.21-.54-1.44.95.75,1.55,1.43.65.53-.4.31.72.58-.56-.08.93,1.15,1-.6,1.44.74.54-.65.81v1l.81,1.26-1,.7v-.64L182,167l-.5.53-1.06-.65L179.22,168l.24.69.57.13-.49.65-.85.17L177.33,171l-1.3.14-.32.91,1.08-.71.59.62-.16.38.72.22-.25,2.42-.54.61-.51.12-.46-.57-1.12.54-.22-.5-.81-.08-.88-2.45-.61.46.44.61-.25.73-1.34-.52.48.52-.54.47-1.51-.26-1-1,.16.58h-.44l1.34.73-1.18,1.61.36.26-.52.26.28,1.73-.79.38.38,1,1.2.47L167,182.37l-.81-.22-.88,1.41-.37-.22-1.11.59-1.79-.38L161,182l-.69.12-.51-.43-1.38.4-.18,1.28-1.5-.43-.26.64-.93.09-.26-.56-.93.14-1.42-1.14-1.37,2.31-.91.42.32.83-.68-.27-.78,1.45.5.52-.18.48-1.52.53-.05-1.45-1-.56-.32-.78.78-.6,0-.9.78-.65-1-2.07-.56.45,0,.93-1.34-.62.36-.47-.54-.55.48-.57-.41-1-.4.87-1.59.54-1.55-2.23-.64.24-.08-.7-.66.22-1-.8-1.61.74-.7-.18-1.06,1.12.14.43-2.67-.93-13.15-.64.08-1.85,1.5-1.79v-1.78l-.18-1.6L120,168.6l.68-1.17.51-.1.16-1,.57.13.44-1,1-.86.91.16-.2-.61.52-.5,0-.9.37.17.2-.64.68,0,1.7-2.1,1-.26-.41-.92.74-.35-.25-.41.64-1.16,1,0,0-1,1.06-.5,1.14-1.46,1.41-.67.43-1.8,1.34.5,1-.35.47-.83-.36-.85-1,.22-.2-.38-.61.09L135,151l-.71.23-.17-.87-.82-.41.14-3.26.85-.64,1.89-3.94-.33-.65-1.27-.37.8-.79-.06-.83-1.75-3.79v-.55l.71-.19.1-1.86.92-1.4.46.12.78-.91.91-.16.13-.82.56.51.24-.37,1.29-.07.19-1,1-.64.15-.66,1.12-.37,1.66.91,2.33-1.33,1,.36.64-1.2.92.73,2.6-3.63.08-.84-.94-1.69,1.94.32,1.2-.39-.09.56.47.18.23.84.58-1.79,3.82-1.71.72-1.44,1.22-.26Z" transform="translate(-0.72 -0.75)"/><path id="IN-PY" class="cls-3" d="M245.19,606.08h-.8l-.09-1.13-1.72-.63-.48-1.15.88.18-.29-.93,1.08.42.38-.4,1.11.21ZM244.12,585l-.39-.67-.62.33-.05-.76-1,.47-.94-.58.5-.83.68.63.2-.35-.39-.79-.58-.17.43-.75-1.14-.31.72-.7.56.89.61-.36.37.32-.77.25.44,1.28,1.28-1.2.83.49Zm51.44-104.81-1.74-.76.91-.57,0,.72,1.27-.09.27-.44.12.62h0l-1.06.09Z" transform="translate(-0.72 -0.75)"/><path id="IN-RJ" class="cls-2" d="M122,172.78v1.78l-1.5,1.79-.08,1.85,13.15.64-.3.86.6.12.42.89-1.85,1.87.14,1,1.13.06L135,183l.39.37-.81,4.54,1,.87-.74,1.64-.76-.19-.28.41,0,.59.56.15.81,1.35,0,.81,1-.07.17-1,2.23.39,1.77-1.15,1.8.94.54,2,.8.24,1-.37.8,1.31.63.13,1.5-1,.91.81,2-1.4-.09,1.37.63.24.27-.68.79-.18.1,1.75-.83,1.1.74.34-.33,1.38,1,.14.09,1.14,1.6.14.12.84-1,1.17,1,2.14-.31,1.16.64.89.56,3.22,1.3.29.23,1.34,3.13,2.09-.17,1.18,2.49.33.69.59.68,1.19,1.34.89-.16.93.88.41-.17.51,1,1.12-.58.26,0-.55-.81-.12-1.92,1.87,1,.31.05.7.66-.9.41.35-.63.46.1.42-.84.14.43.49-.72.21.64.39-.49,1.12-.52-.33-.31.42.11.39,1,.17-.3,1,1.82.4.8-.48,1.78,1.43,1.05-.79-.63-.54.12-.82-.68-.38.27-1.36-.51-.62,1.23-.77-.76-.65,1.54-.28.65.29.32.77.92-.23.28-.9-1.2-.64,1.22-.65-1.6-1.18,1.19,0,.85.93,2-.4.56,1.14-.77-.12-.26.44,1,.67-.92.35,1.77.25v1.62l1.28-.93,1.27-.21-.18-1.84,2.94-1.42.2-1.29,1-.35,2.33,2-.9,3.45v1.72l.41.13-.26,2-.47,0-.42,2.4.64.7-.7,0,.45,1,.66-.39.76.42.49-2,1.79.08-.25-.6-1-.34.37-1,1.85,1,.52-.36,0-.56.63.17-.25.55.53-.87.79.85.65-.71.27.22.6.44-.14,1.63.82.53.12,1-.66,1,.82.43-.41.52.1,1,1,.31.29.91.69.37-.3.86.35.62,1.37.41,1.62,1.29.83-.4-.47,1L199,243l-.1.51.7.4-.39.58-1,.16-.3,1.06-1.94.66.48.65.93-.25-.17,1,1.46.5,1-.84.63,1.19h.39l.09-.72.6.2-.4.81-1.82.33-4.75,2.5.36,1.11-.23,1.15h.75l-.34.53,1-.47-.26-.48.36-1.41.47.61,1.75-.25,2.34-1.14.06-.81.72-.5,2.86,1.12.21-.81.88.57,1.35-.25.33,1.16.53-.32-.11-.95,1.24.24.2-1.12,2,.33.22-.35,1,.71-.74.95-.75-.14.4,1.23-1,.21.32.83-1.6-.13.34,1-.56.39-.07,1.28-2-.46-.93.88-1.11.06-.32,1-1.24.48-.15,1.05-1.44.22-.63.95-1-.09-3,2.17-2,.18.1,1-2,.18-.94,1.43-1.82,1.35H188.1l-.68,1.09-1.19.21-1,1.15-2.06.91-1.2,1.47.21.43-.71,1.35-1.06.26.14.45-.61.46-1.83-.15-.41.88-.7-.08-1.33,1.76,0,1.48-1,.37-.09.53.69.52.2,3.3.92,2,.52.26.28,1,1.64,1,1.8.21.07.55,1.52-.42,1,.19,1,1.08.36-.5L186,288l1.07-.89,2.71.65.32-1.43,1.31-1.15.47-.3,1.18.54-.53,2,.74.12-.46,1.12,1.19,1,.24.77-.57.11.16,1.72-2,.68-.85-.82-1.94.13-1.15,1-.78.25-1.75-.5-2.92,1.6.77,2.08.62.07-.14.66.73.34-.47.53-2,.22-.63.47,1,1.59,1.3.09.89-.43.42.77,1.15.48.68,1.57.11,1.66-.3,1-.38,0-.64,1.16-.76.39-1.06-.61,0-1.28-.7.42-.28-.55-1.08.34.77,1.49-.24,3,.72,1.55,1.47,1.48-.6.4-.33,1.31-.92-.18-1.15.43-1-1.18h-1.13l-.56-.5.59-1.26-.2-.83-1.6.51-.05.47-.54-.17.19.45-.66.66.29.46-1,.4-1.29-1.55-.35.33-.62-.23-.19.44L171.41,312l-.92.86-1.41,0-.44-1.55.24-.6-.43-.47-.89,1,.24,1-.69,1.08.28,2.31-1.84.45-1.82,1.14.33,2.11-2,1.1-.38-.25-1.39.48-.36.47-.57-.82-1-.32-.09.61.65.43-.24.89H158l-.06,1.33-.68-.94-1.45,0-.56-.58.43-.36-.33-.42-2.18-1.38.17-1.37,1-1.55,1.1.59.36.71,1.06-.18.72-.77.66,1.47,1.29-.66.36-1.46,1.14-.31,0-.82-1,0-.28-.67h-.68l.63-1.85,1.11-.59-.32-1.3-1-.17-.57-.85-.23-1.31.59-.09-.13-.44.89-1.07,1.17,1.29,1.29-.85.06-.83-.43-.39.71-.55-.39-.43.23-.44-1.13-.95-.53.4-.21-.41.43-.91-.45-.42.24-1.34-1.65-.8-3.07,1.75-.65-.78-2.73.67-3.86-.9-1,.23-.66-1,.44-1,.95-.63-1.06-1.08L148,297l.32.46.56-.13-.48.84,1.08.13.56.92,2.34-1.16.14-.66-2,.13-.31.4-1-.46.66-.77-.56-.89.2-.34.79,1.75.5-1.44-.39-1,.68-.43-.12-.41-3.91-.06.11,1.24-1,.6.06,1.75-1.31.16-.27.53L142,297.4l-.15-.84-.59-.49-.37.29-.43-.85-.48,1.05.68,1.72-.15,1.39.2-.47,1.23.6,1.88-.2.28,1h-.56l.13,1-.79.18-.4.92-1.05.12-2-3.21-.5,2.47.87.37-.7.8.14.59-.88.32.18,1-.94,1,1.41.63.79-.18,0,.67.83-.13-1.48,2.19-.08,1.25-.64.78,2.45.05.51.43.24.64-.51.46,2.34,4.19-1.5,2.15-.33,1.4.73,3.17L141.7,325l.67,1.19-.7.17-1.27,1.56-.89.46-.38-.32-1.07,1.08-.69-.07-1,.89-.87.07-.82.88-.07,1-1.1,1.11.74,1.05.38-.42,1.56.93,1.15-.28.44.67-.57.44,1.06-.22v.47l-.63.39-1-.15-1.28,1.28-1.31.29-.7,1-2.53-.52-1.43,1.11-.84-.73.11-.54-.88-1.57-.81-.09-.51.91-1.17-.61.14-2.05-.67-.59h-1.2l-.25-.82-.87-.12-.42-.9-.49.08-.18.73-.93.1-1.3-2.49-1,.28-.38-.55-.81,1-.46-1-1.07.34-.43-.27.54-1.17-.45-1,.5-1.7-1.75-.73-1.33.87-.11-2-.61-.12-1.23-1.6-.93.29-.28-.48v-1.69l1.31-1.58-.41-1.35.18-1.38-.93-.84.08-.92-.8.3,0,.94-.87,1.06-1,.38-1-.93.52-1.07-2.29-.92-.66-1.06,1.3-2.8.75.14.26-1,.37.22.43-.7-.43-.24-.86.56-1.77-1,.49-.73-.3-1.56-.9.67-.8-.39-.27.27-.77,2,.59.45-1.42.86-1.16-.9-2.84.1-.82-1.33.08-.86L93.15,307l-.92-.79-.92,1.29.15.93-.9.06L90,307.28l.13-1L89,306.4l-.68-1.23L87,305.5l-.92-1,.59-.45,1,.3.58-.72-.81.22-1.78-.56-.41.47-.94,0-1.69-.88v-1l-.69-.2-2.26,1.82-.51-.93-.91-.18L77.87,304l-1-.4-.26-1.12-2.88.86-.94-.86-2.69-.07-2.2,1.19-.67-.72-1.12,1-4-1.67-3.38-5.82-1.07-4.82L55,288.82l-.46-1.29L53.08,286l.29-2.95-.46-4.16-1-.21-1.69.69-2.86.29-2.51-.86L41,273.14l-.29-3,1.89-4,.24-5.62-.34-1.49-2.13-1.13-3.91.42-1.34-.25-2-1.44-4.49-2.21-.5-1.34.62-4.92,1.36-3.48,5.94-5.56,1.55-2.33,1.68-1.26,1.91-5,1-1.58,4.38-4.11,2.46-.61,1.65.34,2.3,2.49.13,1.77,1.66,2.87,2.65.44,8.13-3.38,2.87-.56,5.2-.07,5-2.09.76-4,1.31-1.89,3.94-3.57,2.46-7.27L88.89,207,95.72,203l4.83-2.2,1.22-2.86,1.87-2.43,3.81-7.36L110,179l4.6-2,3.69-1.06Z" transform="translate(-0.72 -0.75)"/><path id="IN-SK" class="cls-2" d="M429.28,222.77l.45.59,1.76,0,1.71,1.45.07,1.88.53.2.51,1.47-.66,1.05-.16,3.47-1.66,2.45.88,3.75,2.37,1.85-.49,1.2-2,.64-.27,1.45-.77.88-.57.22-.83-1-.59.41-.78-.59-1.26,0-.8.24.19.66-2.05,1.6-2.26-.54-.41-.56-1.5.21-.78-.38-1.23.45-1.06-.58-.23-1.39-1.22-.42,1.1-2.73-.52-.83.1-.8.7-.5-.76-1.63L420,230l-.5-.7.59-.4-.11-.38-1.44-.66-.13-1.64.32-.29,1,.46.86-.57.3.46,2.11-1,.94.27,1.95-1.59,1.17.16.33-1.09,1.29-.44-.09-.61Z" transform="translate(-0.72 -0.75)"/><path id="IN-TG" class="cls-1" d="M197,445.24l.36-.58-1-.69.74-1.5-.61-.21,1.24-.4-.82-.39.64-.45.51.21-.08-1.61,1.08-.11.19.56,1.65-.6-.08-2.67.52-.68.6.51,1.07-2.71,2.2-.33-1.27-1.9-.86-.06.27-.9-.86.06.1-.72-1.05,0-.2-1,.09-.73.74.23.11-1.11,1,.26-.36-1,.57-1-.25-.36.44-1.28.8-.26-.92-.38,0-.39,1.85-.87,2,1.56.12.64.65-.29,1.83.41.57-2.11-.31-1.76,2.65-1-.62-2.24.67-.3v-.72l-.86-1.3.34-.59,1.24-.53.47-1.49-.6-1.28-.94-.23.53-1.46.35.71,1,.09.28,1,1.64.44.37.51.68-.63,1.62.1,2.36,1.12,1.43-.27,1.28.45.27,2.26,1.2-.25,1.11.4.24,1.42-.54.74.8-.23.53.49,1.77.26,1.57,1.49.94-.16-.33-.52.62-.78.15-1.89,1.28.49.2.54,1.14-.12,2.12,1.63,1.52-1.13.2.63,1,.36.87-1.57,2.11-.63.94.22.9,1.25,2.34,1.6.69,1.4-.24,2.28-.87,1.57.48,1.22-1.78,1.47,0,1.53,1.18-.28.39.56.09,3.59-.94.61.8,1,1.68.39,2.06,2,1-.43.65.44.27-.48,1.37-.45,1.56,2.89,3-.91,3.13,2.4.37,1,1,.79-.16.37.74.23-.21.57.59,1.77.91,1.05-1.15.77,0,1L265,448l.67-1.48.79.59-.4.21.29,1.42,2.33-.78-.62,1.91,1.85,6.37.86.08,1.81-1.45,2,.88,2.74.12,1.56-.39.46.47,1.83-.54.89.27,1.08-1.34.53-.18.31.52,1.16-.71.72.9-.22.45-4.31,2.31-.11.84-1.43,2.13.44.44-.47.67-.17,2-1.63,1.9-.91.1-1-.73-1.2,1.54-1.79-.05-.4,2-2.43.4-1.16.75-1.8-.47.17,1.2h-.9l-.24,2.08-.55.55-2.24-.85-1.8.21.36-.71-2-1.1-1.34.66-.3,1.26-.75.72-.54-.17-.53-1.15-.59.46.46.92-.64.95,2.71,1.15.08-.66,1.94.47.05,1.14-.45.11-.22,1,1,.8-.87.55-2.22-.59-.09-.56-1.1-.74-.56.84-.3-1-.83-.35-.37-1.84-.82-1.19-1.28-.06-.4-.69-1,1.3-1.84.43-.76,1.27-.37,1,.86.24.77.84L249.3,479l-1.87,2.24-1.18.09-.84-1.31-1.08.17-.74-.85-2.66,1.47-3.16.68-1.47,1-3.36.46-.86,1.15L232,490l-.89.49-3.05-.62-2.2.94-.42.44.1,1.66-.79-.11-.2-.93-.53-.08,0,1.5-1.29,1.39-1.29-.07-2-1.56-1.21.92-3.21-.53-1.88,1.12-1.24-.05-.39,2.21-1.22.62-.32,1.11h-.81l-.34.48-1-.38-.58-1.24-.72.92-2.39-.79-1.85.66-1.74-.46-1.2.22-1.1-.76-2-.2,0-1.76-.41-.61.39-1.58-.47-.27-.07-.93.57-1.4-.46,0,0-.55.28-.39.68.11.66-.76.53.23,0-1.09-2-.83-1.73.28-1.44-.37-1.22-.5-1-1.42,1.19-.12.1-.38,1.46.16.27-.58.75-.15-.49-1,1.52-.41.11-1.37-.77.21-.34-.55,1-.34,0-.73-.91-.06.3-1.49.7.09-.37-2.82,1-2.14-.78-2.11L193,469.92l.81-1-.39-.24,1.55-1.22-.42-.27.36-1.79,1,.36.6-.4.16-.69-.53-.51,1.31-.05v-.53l.78.21v-.56l.62-.13.25-.59-.09.48.75.18,0-.72-2-.59,0-.65-.87.29-.44-.52-.54.7-.24-.55-1-.33.22-2.4,2.34-1.22.08-.37-1.29-.4.14-.42.31-.55.5.19.48-1.2.5.06-.24-.83.66.12.15-1.2.42.25.2-.51-.15-.52-1.13-.37-1-.95,1.14-1L198,448.3l-.7-1.07.81-1.69Z" transform="translate(-0.72 -0.75)"/><path id="IN-TN" class="cls-1" d="M233.91,637.46l.47.35-.43.61.24.44,2.38,2.18-2.95-1.86-1.76-.16-.22-.49.34-.31,1,0Zm-22.86-72.58.14.8-.78.72,1.56-.22.54.83,1.63.88,1.91-.12,0-1,.65,0,.1-.86.36,0,.12,0,.17.51.49-.13-.05-1.24.77-.57.91-3.17H220l-.69-1.28.78-.84.9.29.18-1.1.91.23,2.72-.87.13,1.42.89,0-.65-.35.44-.7,1.36-.19,1.87,1.33,1.76.15.75-1.65.62-.41v-.68l1-.12.85.95,1-.7-.14-.72,1.59-.52,0-.45.5-.17-.2-.28-.53.38.3-1.48-1.06-.47,1.14-.44,2.23.27.27.94.66.47,1.85-.78.1,1.12.48-.1-.15.57.71-.31.45.57.85-.61-1.33-1,.68-.65.54.44.43-.48,1.07,0,1.55-.69.59-.82-.44-.64.64-.29,0-.72.71-.17.22-.61.63.07-.07-.37-.89-.17.08-.42,1.58-.17,1.73,1.25,1.63,0,1,1.87.76.43v-1.14l.68,3.19-1,2.86-.92,7.6-2,6.68-5.7,8.62-1,2.65-.83-.49-1.27,1.2-.45-1.29.77-.25-.37-.32-.6.36-.57-.89-.72.7,1.14.31-.43.75.58.17.39.79-.19.35-.69-.63-.5.83.94.58,1-.47,0,.76.62-.33.39.68-.9,5.19,1.69,4.43.35,8-1.11-.22-.38.4-1.08-.42.29.93-.88-.18.49,1.15,1.71.64.1,1.13h.79l.58,10.94-.91.45h-1.94l-7.48-.89-1.9,1.19-1.38,2.46v1.1l.81,1.15-2.34,2.23-.7,1.64-2.68,3.08L226,631.57l-.76,2.69.86,1.56,2.6,2.23,2.65.4-2,.45-2.9-.26-1.72.33-3,1-.19.39-1.27,0-.33.4.32.34-1.66.55L215,642l-4.22,3.21-.84,1.63-.24,2.33.62-.11.9.59-1.27.1-1.35,1.94-.17,1.48.88-.16-.18,1.93-1.36,1.62-.33.83.37.21-5.51,2.57-1.2,1.49-3.58.87L197,663.8l-4.92-.94-4.6-3.72.53-.52.79.22-.52-1.39,1.57-1.24-.48-1.17,1.27-.17.37-.76-2.3-4.21.45.06.8-.86.59-1.76-.8-1.22-.51,0v-.66l-1-1.36,1-.52.28-1.1,1.17-1.15-.31-.76.63-.62v-1.73l.36-.77H192l.48-2.18.93-.41.37-1-1-.62-.2-1.45-.34.67-.43-.63-1,.59-1.24-.83-.92,0,.8-2.31.38-.13,0-1.23.51-.18-.52-.55.3-.72-.51-.36.74-1.62.51-.23-.22-1.41-1.27-1.53,1.51-.56.43-1.86-.71-.28.09-.7-.76-1.1.16-.73-1.24-.13-2.32,1.29-.28.78-1.42.84-1.37-.34-.9-.89,0-.49-.54.26-.39-.37.41-1.36-.67-1.17.47-3.6-.52-.87,1.42-.07-.36-1,.88-2-.2-.61-1-.17-.48-1.15-3.52-1.32,1.2-2.27,1.8-.23-1.16-.11,0-1.56-1-.49.72-1.37-.6-.48-1.55,1-2.83-.36-.73.48-.14-1.07,2-1.31,0-1.26-.61.11-1.27-.74-.8-1.11-1.61-.53-.26.3-.9-.63-.79.31-.31-2.22,1-.61.56.61,1.1-.39.62-.85h.94l0-.77.59.09,1.1-.91.76.58.41,1.29h3.9l1.47.28.44.48.28-.58-.47-.9,1.49-3,1.26.38.27-.76.67,0,.56.4-.19.41.72-.26.31,1.1.79.26-.14-1.06,2.61-.44.3-.4.91.09.86.83.7-.42,1.25.6.77-1.88-.07-1.05.51.27.15-1.2,3.69-.12.61-1.53,1.65-2-.88-1.32-5.46-.74.1-1.27,1.52-.46,1.28-1.5.34-1.16.1-1.47-1,.19.65-.67-.58-.15-.18-1.09.58-1.34-.16-.78,1.34-.35.51.53.53-.52.58.21,1.42-2.62-.3-1,2.78-.95.35.48-.53.73.33.17.43-.76.75,1.15h.42l.28-1.07.67.07,1.54,1.55Z" transform="translate(-0.72 -0.75)"/><path id="IN-TR" class="cls-1" d="M503.38,305.85l1,.43v1l.87,1.86-1.25,3,1.75-.06.84,2.4-.47,2.55.31,1-.37.66.41,1.11-.23,1.05-.59-.13-.36.51.26.73-.58.05.19,2-.44.1-.49,1.52-.13-.86-.65-.35-.13-.73-.36.07L501,325.88l-1-.3-.83-1.64-.45.05-.41,1,.68,4.53-.69.3v.72l-.8-.09-1.17.94-1.52,2.77,1.27,4.13-.43.58-.77.07-1.13,1.76-.54-.31-1,.24-1,.81-.78-.36L489,337l.28-.66-.76-.15.24-.53-.55-1h-.75l-.73,1.71.69,2.72-.93-.11-1-2.12,0-2.15-.54-.86.32-.26-.51-.43.6-.93-.61.17-.9-3.06-1-.64.23-.69h-.39l-.7-1.23-.1-1.55.79.54.23-.93-1.08-.08.05-1.1.73-.31.61.3.69-2.27-.52-1,.35-.68-.3-.35.86.05-.09-.85.25-.44.33.23.14-.58,1.5.49.39-1.7-.39-1.32,3.5.76,1.86-.61.55-1.93-.25-.62.4-.36.37,1.39,1,.62.63,0-.39-2.37,1.51.88.67-.45-.12.7,1,1.39.46-.12.67-2.86-.45-1.56.77-.47.8.8-.45-1.54,3,.11.42-.92.7-.15-.43-1.59.08-.55Z" transform="translate(-0.72 -0.75)"/><path id="IN-UP" class="cls-2" d="M197.29,167.73l1.49-.15,1.6,1.74,4.62,2.21-1.95,3.25-.53.54-.56-.25-.6,1.25.31.53-.89.93.32.48-.58.78.33.52-.65,1,1.31,2.07-.15,1.67.78.37,0,.45.76.3.94-.78,1.64-.09.52,2.19-.52,0-.1.61.76.06.09,1,1-.17.14-1,.8-.21,1.2-1.78,1.14-.82.79.15,2.1-2.21,1.69.57,1.57.74.83,2.81L219.1,188l3.78,2.06,2.88.47-1.11,1.53-.87.58-.41-.36-.42,1.29-.66-.49-.91.77,1.8,1.42,1.1-.08,1,1.4,0,1.24.92,0,.38-.41,1.14,1.17.21-1.3,2.18,1,.13,1.43.59.43-.15.67,1-.14,2,1.81h1.11l.17-.43.36.8.51.11.21,1.82,2-.18.61-.69.3,1.11,1.31-.55,1.1.49,1-.77,1.3-.27.71.69-.52,1.37.68-.16.18-.78h.62l.45.62L245,206l1.27.16-.25.39.7,1.26.95.4,1-.52.56-1.08-.31-.4,1-.71,1,0,2.05,1.75.72-.06.12.68,1.27.69.89,1.5,1.92.19,1.39,1.83.27-.51-.56-2.18,1.36-.54.9,1.16,1.17-.07.48,1.3,1.62.51.44,1,1.61.83.21-.48.69.28.12.71,1.35.79.81-.41.36.91.94.67,2.74.58.46,1.69,1.84,2.17,0,.67-.4,0,.54.44-.21.35,1.12-.21.07-.82,1.45.35.83,1-.11.84,3,1.91,1.63.35,3.83,3.05.86-.06.88-1.62,2.09.12,1.16,1.38,1.78.52,5,3.86,5.43-1,.08,1.34.92,1.84-.43,2,4.07,0,.51.78,1.68.44,3.22-.12,2.44,2.88,1.14-.28,1.06-1.63-.52-.53.36-.52-.27-.52,4.72.24,5.06,2.78-.62.66.54.27,1.3-.33.19.49-.58,1,1.18.57.51.81-.82,2.52,1.7-.06-.63.63,1.05.56.12,1.93-.45.45.47.26.09.93.8.34.22-.55.84.31-.19.74.78.5.85-.85.66.19.24,1.26-.58,1.2.19.41.28.24,1.06-.56.58,1.61,1.6.3.26,1-3,.65-4-1v1l-.72,1.31-1.55.27-.24.54-1.26-.22v1.58l1.67.36.6-.32,1.28,1.49,2.08.24.22,1.32-.47,1.66-1-.38-.7,1-1.42-.45.14,2.21.64,1.06.88.07,1.6,1.65,0,.79.75-.22,2,1.25,1.15-.29,1.19.65.32.9,2.2.34,0,1,.61-.07,1.34,1-.41.78.62.74-1.56-.18-.07,1.21-.44-.21.09-.77-.23,1-.76.15-.83-.85-1,.35-.46-1.14-1,.1-.27,1.68-.73-.12,0,.36-1.73-.19-.18-.78-1-.64-1.13.25-.52.57.15,1.34-3.34,1.83L328.92,284l-.86.18.59.67-.92.12.1.48-.78.53-.62-.52-.59.56-.2-.23-.4.41.28.16-.81.08-.58.88-1.22.5-.52-.22-1.65,1.51-1.07.06-.44,1-.81.19-.3.4.46,1.32-.82,2.46.54.15.21,3.22.76.86-.07,1.12,1.39,1.16.56-.1,0,.74.69.56-.34.67.91.59-.9,2.27-2.2.59-.24,1,.39,1.07.62.12.45.89L319,310.61l.54,1.12-1.64,3.75-.72.65-.27,1.13-1.26.77-.55,1.56-2.15,1-3.1.05-2.74-2-.22-1-1.16-.37.51-1.28L305,316l-1.07-1.23.28-.54,1,.44.14-1.92.48-.29.29-1.29-.07-1.84L305,309l.62-2.62-.44-.31-.07-1,.71.34,1.14-.26-.09-1.08h-.76l.06-1-1.42,0,0-.72-.8-.56-2.69,1.11-.23-.61h-1.46l-.34-.65-.64.52.15,2-1.66-.6-.75.23.05-1.29-.69-.37-.22.46-.48-.08.29-2.43-.11.49-.37-.29,0,.35h-.49l.3.53-.85-.25.34-1,.42,0-.63-.53.35-.46-.76.74h-1l-2.25-1.34-1,.46L288,297.38l.33-.88-.29-1.81-.26.39-1.18-.61-.84.21-1.19-.88-1.06.11-.49-.83-1.13.44-.22-.44.79-.54-.32-.44-.32.51-.19-.83.56-.54-.78-.19-.32-.63-1.19.19.32,1-.61-.2-.48.35.73.7-.5.73-1.73-.75.78-.06-.17-.54-.82.24L276.14,291l-.35.2,0,1.09-.17-1.14-.78,0-.49,1.43.33.85L273.46,295l.22,1.41-.58.12.3-.13-.79-.54-.6,1.52L270.83,296l-1.4-.05.16.51-1.29.15-.39-1.07-.83.36.12.38-.38-.2-1,.33-.69-.23-.25-.63,1.22-.6-.45-.95.92-.73-.12-1.21.83-.84-.56-.81-.87.06-.18,1.9-.59-.83-2.09.21.53.33v.57l1.07.32v.52l-1-.24-1.12.41.12-.63-.48.16-1.15-.68.65-.44-.79-.73.25,1.91-.92-.45-.4.55-.71-.77-.7,0,.5.29-.12,1-.51,0-.61-.86-1.57.56.34,1.1-.49-.37-.88.52-1-.62,1.76-2.64,1.52-.67-.52-1.58-.44.12-1.54-1.18.14-2.27-1.15-.95-.23.55-1.07-.26-.13.75-1.35,1-.84-.4-1.3.29-.51,1.72-1.13-.08-.61.89-.23-.54-1.16.38.52,2.07-.51.39.18.8-2.31-1-3.1.28.11-.53-.28.17-.5-.7L237.62,293l-.61-.31.16-.87-.78.61-.33-.72-.34.59L235.4,291l.54-.89.69-.08-.32-.29.67-1,.65,0-.69-.31-.88.56-1-.8-.3.66-.47-.66.32-.9-1.07-.16-.73.69v.89l.59-.43.47.65.63-.25-.23,1,.37.36-.3.31-1.23-1.09.1,1.17.75,1-.24.43-.9.26,0-.72-.49-.18-.45.3.61.17-.1.56-.67.06-.45-.86-.38.2.26.57-1.05.16-.45-.76.27-.47-.76-.65-.86,1.25-.45-.12.06-1,.67-.9-.93-.52-.15-.66-.71.73.5.26,0,.87-1-.56-1.61,1.25.09-2.07.33.24.35-.66.67.26.62-.51-.36-1.49-.53.42-1.07-.3-.73,2.66-.75-1,.13-.66-.6.05.18-.4,1.08-.4-.12-.46.78-.81,1.56-.29-.38.53-.81,0,.75.54,1-.56-.39-1.44-.65.24-.54-.43.68-.76-.4-.94.53-.24-.23-.66-.29.42-.14-.41-.75,0,0,.76-1,.32.61,1-.48.8-.43-.32.67-.18-.33-.26-1.54-.24-.52-.57-.15.86.64.68,1.21.08-1.46.41.44,1.25-1.06.13-.09-.6-1.07-.21,0-.74.26.37.68-.57-.33-.44-.69.09-.51.86-.52-.24-.32.57-.57-.08.32,1-1.07-.26.34.84-.34.46-.52.06-.17-.45-.53.71-.55-.26-.28.36.56.41.89-.53,1.51.81.59,3.7.94.83-.41,2.22.66.48.31,1,2,.94.33,1.06-.33.46.16,2.08-.67,1,.19,1.26.58.28,2.19-1.07,1.77,3.27-.74.28-.36-.37-.11.78,1.59.58-.37,2-1.23,1.2-.61,1.78-1.37.3-.45.68-.66-1.78-.3.43-.29-.33-.7.45-.62-.25-1.9-2.56L217,308.8l-1.47,2.2-1.16.51-1.12-1.24L214,309l-2-1.41.06-.66L211,305.86l.82-.81.2-2.5-1-1.84-.24-1.51-.95-1,0-.57,3.39-2.71v-2l1.42-1,1,0-.52-.56.59-.36-1.28-.6.26-.52-.9-.65-.2-1.2-.78-.3.49-.59-.75-.88.73-.6.36-1.24.62.15.91-.68-.25-1.27.43-.72.54.28.65-.7,2,.41.58-.57.83.54.6-.66,2.68-.7.13-1.15-1.35-1.73,1.54-1.16,0-.37-.49-.06.26-.28,1.06.72-.32-1.42.75-.23-.13-1.05,1.11-.78.31-2,1.23-1-1.26-1.33,1.21-.36-.49-.94.79-.05.11-.85.77,0-.42-.79.63-.48.35.35.21-.92.69-.09-.23-.45.38-.22-1.19-.42.2-1.28.64,0,.2-.65-1.64-.26.26-1.1L227.8,259h-.48l-.13-.72-.25.19.55-.85-.26-1.73-1.16.51.21-.79-.92-.39-.82.21-1.12-1.42-.94,0-.53-.65-.38.3-.16-.48-1.18.72-1.95.27-2.41-.94-.52-.8-.76.17-.8-1.15-1.45.24-.44,1-1.07-.35-.4-1.23.75.14.74-.95-1-.71-.22.35-2-.33-.2,1.12-1.24-.24.11.95-.53.32-.33-1.16-1.35.25-.88-.57-.21.81L201.27,250l-.72.5-.06.81-2.34,1.14-1.75.25-.47-.61-.36,1.41.26.48-1,.47.34-.53h-.75l.23-1.15-.36-1.11,4.75-2.5,1.82-.33.4-.81-.6-.2-.09.72h-.39l-.63-1.19-1,.84-1.46-.5.17-1-.93.25-.48-.65,1.94-.66.3-1.06,1-.16.39-.58-.7-.4.1-.51-1.1-1.44.47-1-.83.4-1.62-1.29-1.37-.41-.35-.62.3-.86-.69-.37-.29-.91-1-.31-.1-1,.41-.52-.82-.43.66-1-.12-1-.82-.53.14-1.63-.6-.44,1.33-1.24h1.53v-.88l1,.26.21-1.12,1.06,0,.38-.61-.56-.24.52-.6-1.18-1.19-.21-1,.19-.52.3.23.08-1.46,1-.51-1-.08-.06-.64.63.24-.08-.66.54-.42-1.55-.52.54-.26.06-.63-.67-.73.64-.48-.42-1.3-2.86-2.27-.92-1.37.89-1-.53-.85.26-1.7-.81.09-1.26-1.79-.58-.18.43-.95-.64-.75-.1-.55.82-.34-.65-1.23.5-1.19-1.93-2.38.38-1.82-.31-1,.4-.44-.31-.71.51-1.49-.71-.34-.06-.65.62-.31-.44-.5.29-.75-1.14-2.19.52-.46-.51-1.15,1.21-2.52L188,183l.74-.53.58-2.72,1.74-2.3.15-1.11,3-1.42-.35-.28.54-1.2,1-.48,1.12-2.26.91-.7.45-1.44-.35-.33Z" transform="translate(-0.72 -0.75)"/><path id="IN-UT" class="cls-1" d="M231.45,144.7l1.11,1.39-.3,1,.82.57.25,1.48.84,1,1.19.28.65,2,1.85,0,.63,1.58,1.17.76,1.4-1,1.06.06.78-.57,1.32.71,1,0,1.26,2.1,2.71,1.17,1.23,1.56,1.13-.8.7,1.19.67,0,.31.67-.37,1-.82.66.6.6.14,1.6,1.88.28,1.31,1,.68-.1,2.63,1.86,1.21-.8,3.21,2.15,1.54,1.89,4.36,1.62v.39l-.59-.24-1.65.56-1,1.31.31,1-2.44,1.9-.28,1-1.5,1.17-1.52,0-1.06,2.63-1.2,1.25-1.25-.2L256,183.47l.34,1.81.75.86-.26,1.06-.6.81-.76.2.14.81-1.31,1,.33.58-1.24.2,0,.79.7.46.08,1.07.79.81-.41,2.59-1-.37L254,198l-.8.57-1-.45-.84.82-.18,2.28-.38.6-.37-.11-.87,1.67.26,2.06-1,.71.31.4-.56,1.08-1,.52-.95-.4-.7-1.26.25-.39L245,206l.74-.23-.45-.62h-.62l-.18.78-.68.16.52-1.37-.71-.69-1.3.27-1,.77-1.1-.49-1.31.55-.3-1.11-.61.69-2,.18-.21-1.82-.51-.11-.36-.8-.17.43h-1.11l-2-1.81-1,.14.15-.67-.59-.43-.13-1.43-2.18-1-.21,1.3-1.14-1.17-.38.41-.92,0,0-1.24-1-1.4-1.1.08-1.8-1.42.91-.77.66.49.42-1.29.41.36.87-.58,1.11-1.53-2.88-.47L219.1,188l-1.63-1.49-.83-2.81-1.57-.74-1.69-.57-2.1,2.21-.79-.15-1.14.82-1.2,1.78-.8.21-.14,1-1,.17-.09-1-.76-.06.1-.61.52,0-.52-2.19-1.64.09-.94.78-.76-.3,0-.45-.78-.37.15-1.67-1.31-2.07.65-1-.33-.52.58-.78-.32-.48.89-.93-.31-.53.6-1.25.56.25.53-.54,1.95-3.25-4.62-2.21-1.6-1.74-1.49.15.37-.62,2.06-.52,2.51-1.44.24-.53-.15-.74-.87,0-.68-.86,1.1-.5-.06-1.08-1-.53.16-.61-1.1-1.4,1.17-1.48v-1.25l.93.55.14-1.59-1,0-.23-.9.61-.43,1.12.57-.44-.39.61-.93-.52-1.32.88-.46.94-1.79,1.41-.58,1.24.58.33-.74,1.21-.14,1.26-1,1.77-.08.77-.89.51.13.1-.54,1.21-.06.87,1,.45-.29.52.38.54,1,1.41-.07,1.22-.73.81.36.28.66,3.09-.25.49,1.41,1.11,1,2.62-.2-.46-1.53-1.24-1.14-.18-.83.39-1.77,1.38-.79,1.18-2.59,1.7.77Z" transform="translate(-0.72 -0.75)"/><path id="IN-WB" class="cls-2" d="M426.19,372l.59.56.1.73-1-.28Zm7.05-.17,1.44,1.15-1.27,0Zm-2.32-.43.59.55-.34.68-.6-.5Zm-3.91-.27,1.06.82-.79.86-.84-.87.3-1.14Zm4.92-.32.54,1.37-1,.34.31-.55-.51-.6Zm4.05.26.4.45-.6.08-.09-1.12Zm-7.8-.82v1.34l-.81-.5Zm8.2-.62.13.93.45.37.34,1-.6.07v-.59l-.56-.51-.47-1.12Zm-3.76.2-.17.93-.81-.48Zm-10.34-.21.73.39.25.92-.89.88Zm3-.07.35.81-.48,1-.3-1.15Zm-5.22-.27.25.46-.24.41.33.36.06.53-.24.92-.65-1.92Zm17.89,0,.75,1.74-.91.59-1.1-1.4.23-.55Zm-10.68.1.56-.12.31.71-1,1-.54-1.24Zm7-.63,1.2,1.12-.4,1.41-1-1.39Zm-9.85.32.34.65-.36,1,.43.7-.7.71-.39-1.9.5-.81-.53-.33.35-.53Zm-4.08-.42,1,.17.7,1.56-.3,1.54.42.53-.6.47-.71-.2Zm15-.19.81.9-.9-.18Zm-11.78,0-.12.78.38.43-.48.37-.23-1.41Zm13.44,0,.79.6-.51.28Zm-3.74,0,.64,0-.54,1.16.43,1.57-.33.22-.74-.26.13-1.6-.84.15.44-.93ZM428,368l.79,1.08-.27.75-.65-1.32Zm8.3-.11.76,1.28-.23.22-1.12-1.18Zm-7.73-.17.2.94-.37-.31-.21-.48Zm-3,0,0,1.16-.69.44.09-1.13Zm5.19-.41.9,1.08-.14.62.29.13-.08.74-.7.14.4.63-1.28-.44.17-1.48Zm-3.59-.07.58.51V369l-1.11.37-.32-1.16Zm-2.57,0,.44.25-.44,1.32-.51-1Zm12.09,0h.36l.13,1.05-.68-.56Zm-3.59.18,0,.83-.83.38L433,367Zm2.38-1,.73.6-.25.72-1,.41-.26-.91Zm-7.31-.07.31.45-.09.7-.56-.41Zm-5.44.12.47,1.14.52.15-.06.44-.71.18-.17.8L422,369l-.4-1.55Zm11-.46.44.31.72,2.58-1.42-1.18Zm-15.05-.22.74,1.42,0,1.56-.57,1.4.24.67-1,.54-1.41-.52-.1-.58.75-2.36Zm13.68.47.72-.8.38.4-1.06,1.51-.16-.8Zm3.94-.88,1.05.62L437,367l-1.25-.45Zm-7.48-.1.67.67-.31,1.87-.8-1.77Zm-1.24,0,.27.43-.42,1.2-.35-.51Zm-2.43-.17.75.39.17.7-.88.92-.94,0,.44-1.73Zm5.63.12.69.08.68.82-.48,1.76-1.28-1.28Zm-1.57-.49.57.22-.42.54Zm4.11.08,1.65-.23,1.08.61-.28.48-1,.82Zm-2.36-.31,1.58.27.18.79-.38.44-.4-.81-1.08-.18Zm.45-1.08.11.56.66.13.2.29-1-.07-.39-.77Zm-1.79-.88,1.17.42L430,364.3l-1-.34Zm-10.85-.16-1.13,2.1-.84.47.54-1.87Zm14,.15,1.88.18-.12,1.67-.86.2-2-.91.29-1Zm4.79-.65.76,1.38-.3,1.18-.64.19-1.12-2.13.12-.77Zm-3.58-.68.35,1-1.89-.28Zm-.6-.56.28.36-1.33.38-.21.5-.5-.14.54-1.17.76-.29Zm.31-2,1.24,2.26-.91.06-.87-.88.88-.35-.7-1.2Zm2.07.18.61.77L436,361l-.84.61v.91l.46.54-.23-1.24.6,0,.19,1.55,1,1.49-.19.44-1.59-.77-.5-1.31-.23-1.59.61-.73-.77-1.61.54.19Zm1-.36,1,1.54-.27,1.46-1.47-.16.62-1.47-.51-1.25Zm-6.45,0,2,.66-2.22,2,1.11,1.13-.2.5-1.37-.48-.56-1.71Zm3.31,1.1-1.55.87-.81,1.22-.34,0-.42-.46,2.29-2.14.44-.09Zm2-1.69.3.63-.63.45-.15-.41,0-.48Zm-2.82-1.31.27,1-.57.34.5.88-.67.14-.87-.61.09-.53Zm.6-1.4,1.05.06.41.84.54.15.16,1.35-.86.36.23,1.07L432.78,358l.47-.26-.32-2Zm3-.83,0,1.29.83.62-.62.26,1.53,2,0,1.14.58-.17-.72.6-.89-1.74-1-.09-.37-1.08.36-3.22Zm-1.9-3.44,0,1.58.61,1.44-.7.52-.52-2.87Zm.85-.54.53.24.81,2.67-.82.44-.36,2.27-.73-.59v-.93l.55-.44-.58-1.59,0-1.86Zm-19.21-107,1.22.42.23,1.39,1.06.58,1.23-.45.78.38,1.5-.21.41.56,2.26.54,2.05-1.6-.19-.66.8-.24,1.26,0,.78.59.59-.41.84,1,.56-.22L434,246l.1,3.67.93-1,.72.65-.29.61.48.42,1.31-.37.45.85.91.23.25,1.34.61.66,2.6-.2,2.55-1.16.29.6,1.22.16.21.65,2.08-.22,1.32.9.48-.09.2.4-.86.83.4.21h.55l.32-.51,1.1.42.63-.33.37.86.69-.36,1,.27.41,1.26-.41.61.43.91-.32.15-.2,2.1.38.64-.91,1.48.41-.15.22.43-1.57.72,0,.52-.63.22.17.75-.86-.38.41.8-.25.3-.43-.27.5.74-.66.48.73.12-.78.54.82.32-.32.21-.41-.05-.48-.77-.06-.4-.75-.21.49,1.21-.87-.06-.12.58-.4-.09.81.89-.76.41.34.29.41-.43.42,1-1.49.91,0,1.3-.78-.06,0-.8-2.17-.08-.19-.86-.65.9-1-.08-1.45-.9,0-.39-.49.05.22-.64-.88-.72-1.41-.38-.46-1,.13-1.28-.8-1.09.75-.89-1.12,0L439,264l-.43-.63.15-.78-1.1,0L436,261.1l-.27.79-.37-.17-.47.57.18,1,.92.09.1.27.48.05.34.55-.33.55.86.45.67-.2.1.9-2.08.32-.75-1.09-1-.07-.42.32.35.9-.8.11-.58-.59.05-1-.47-.29-.78.3-.26-1.23-.94.44-.47-1.07.43-.19-1.63-1.09-.08-.83h-.54l0,.52-.83-.18.08-.74-.72.17-.85-1.39-1.06-.13-.42-2-.79.94-.89,2.7.43.74.25-1,2.42.61.87,2.35-.79.25-.61-.57L425,264l-.66.15.19.34-1.34.8v1.43l-2.15.71-1.45,1-.41,1.57.51.17-.25.88.29.2-.9.29-1.2,2.3.45.53.19,2.15.72.52.72-.57.47.31,1.29-.53,0,.65,2.24,1.56.6,1,1,.2-.22,1.47,1.12.36-.07.55,1.71,1.2.65-.18.85.84,1,.16.26-.62,1.22.1-.14-.66,1,0,.6,1.16-.46,1.41.58.38,0,.68.94.92.37-.3.4.73,1.79.26-1.14.76.05.92-.51,0,.27.79-.51.39-1.64-1-.86.9-.64-.43-.44.3-.9-.73-1.93.08-1.07.65-1.38-.78-1.13.35.35,1.25-.41.37.21,1.08-.35.67.36.33-1.17,1.53.08.54-1.25.15-.32.65.45.42-.48.61-1-.69-.28.47v-1l-.74-.95-1.85.54.75,1.72-.59.25-.24,1-.28-.38-.35,1-.74.23-.12,1.1L416,302.57l2.87,3.68,1.09,1,1.58.5,1.2,1.27,2.42.14,1.68.76.55,1.08.28-.68h.38l.91.46,1.52-.11.67.81,0,1.78-.68.71.22,1.08-.32.12.11.43.53,0,0,2.32.66-.32.25.54-.75.15-.07,1.48h-.62l-.91,1-1.73.19.54,1-.88.72.4.45-.36,2.8.65.13-.25.81,1.35-.16.3,1.25,1.75,1.64,1.16-.32-.16,1.21-.53,0-.17.54.1,1.3-.6.35.26.82-1,.31.48,1,1.6.84.37,0,.08-.78.73.6,1.27-.12.12.49,1.58-.09-.27.7-.43-.2-.85,1.45-1.06.68.07,2.07-.56,0,.44.29-.13.78.71.11.38.72-.09.93h.77l.45.79-.19,1.09-.82.73.84,1.61-.56,1.62.52.18-.42.92-1.44.54-.54.86.32.6-.26,2.09.64.74-1.2-.18-.4,1.7-1.22,1.11-.11.73-1.14-.09-1.31,2.27.36,1.43-.8,1.59.17,1.38-.6.52-.11-.39-.67.07-.26,1.14-.71-.58.65-1.14-2.21.52-.47.48-.14,1.94-.56,0-.22-1.33-.83.22-1.15.89.29,1.17-1.16-.2-1.13-2.58.29-1L419,364l1.13-1.43.34-1.18-.44-2.06-.78-.72-2-.29.74-2.09-1.17,1.9-1.35-.57-.55-.88-.25-2.73-.48-.65-.83-.15,1.22,1.69-.05,2.39L416,358.5l2.66.38,1.11,1.92-2.65,1.93-.19.07-1.52,3.42-1.07,1.28-.82.16-2.1,2.21-.76-.11-1.33.95-4.35,1.09-.49-.81.25-1.39-.58-.49v-.72l-1.53,0-.38-.58-1.88-.63-.58-3.15-1.41-.42-.19,1-1.35.51,0,1.06-1.35-.11-.67-.94.76-1.84-.35-1.17-1.27-.94-2.62-.27-.87-1.32-1.57.24.16-1.62.92.09.19,0h.5l.21-.55,0-.58.09.33,1.46-.06v-.95l-1.2-.69.31-1.6-1.71-.66-.35-1.14.92,0,.19-.55-.81-1.66-2.26-.07-.71-2.2-1.65-1.07-.68.43-1.9-1.69.35-1.9.64-.81-.64-.61.79-.59.3.35.71-.23.45-1-.58.48-.31-.54-1.7-.11-.49.46-2-.88-1.8.49-1.3-1.11-.29-1-1.85-.57-.23-.8-2.56.32-1.2-1.46-.54,0-.11-1.54,1.08-1.38-.24-.93.61-.13-.69-.89.07-1.37,1.63.35,2.16-.88-.76-1.32.76-.73,2,.37,0,2.15,1.58.38.37-.31-.29.77.38.37.74-.49.45.48.3-.19-.29-.35,1.5-.88-.38-.32.09-1.06.48-.93,1.23-.57v-.46H385l1.32-1,2.14-.53.79,0,.14.37,1.12-.22.59-1.68-.57-1.6.59.46,1.05-.75.09-.42.41-.4.87.8.64-.46,3.29,1.6H398l.37-.57-.74-1.08,1.35.29-.14.31.63.22.5.11.12-1.84.46.77.51-.58-.06-1.3-.64-.24-.49-1.71,2,.23-.36.61.26.19.61-.3,2.12.63-.51-.61,1-.12.58-.6-.41-.28.05-1.44,1.73.69-.14-.49.8-.51-.8-.61,2.52.14.06-.83-1.15-.58,0-.71,1-.09.6-1,1-.27,1.13-2.35-.53-.18.8-1.83-.34-.37-.24.45.23-1.24-.77-.84,1.65.71.82-.27.47-.71-.78-.39.6,0-.35-.33.6-.73-.56-.35.3-1.09-1.28-.38-.45-.64.41-.5-.05.57.4,0,.46-.67L413,299l.64,0-.2-.65,1.77-1-.14-.76-1.88-2.26-2.1-1.45.23-3,1,.49-.29-.81.7-1-1.52-1.26.11-.91-.49-.13-.14-.63.47-.91.57.24.53-.7.62,0,.33-1.17.41.27.57-.73,1.25.26v.51l.37.2.07-.38.42.56.9.13.05-.54-.78-.75-.31-1.16.7-1.06-.39-.1.27-1.24-1.83-.79-.6-1.08-.71,0,.25-1-.57-.32.58-.54-1.85-.45-.39-.94.54-.54.26-2.53,1.48-1.08.38.52.14-.36.64.07-.09-1.64,1,.26.51-.86.67,0L418.8,266l1.46-.67,1.62-1.68-.5-.63-.63.13-.15-.43.78-.64-.81-.59-.06-.68-.68.1-.31-.43,1.14-1-.05-.45-1.31.34-.48.61-.83-.57h0l0-.08,1.21-2.25.57-3.15-.3-2.19-.78-.78.2-.51-.53-.69.3-.83-.89-.43-.32-.73-.82,0-.35-1.19-.62-.42.58-1.53Z" transform="translate(-0.72 -0.75)"/></g></g></g></svg>